<?xml version="1.0" encoding="utf-8"?>
<!-- Generator: Adobe Illustrator 26.0.3, SVG Export Plug-In . SVG Version: 6.00 Build 0)  -->
<svg version="1.1" id="圖層_1" xmlns="http://www.w3.org/2000/svg" xmlns:xlink="http://www.w3.org/1999/xlink" x="0px" y="0px"
	 viewBox="0 0 489 489" style="enable-background:new 0 0 489 489;" xml:space="preserve">
<style type="text/css">
	.st0{display:none;}
	.st1{display:inline;fill:none;}
	.st2{display:inline;fill:#F97D5B;}
	.st3{display:inline;fill:#F1A479;}
	.st4{fill:none;}
	.st5{fill:#F97D5B;}
	.st6{fill:#F1A479;}
</style>
<g id="圖層_1_00000041297424739594935720000003849619614790091691_">
</g>
<g id="圖層_2_00000065757324184737969430000003014045232567762306_">
	<g class="st0">
		<path class="st1" d="M505,430.9c0,24.7,0,49.5,0,74.2c-173.6,0-347.4,0-521,0c0-173.6,0-347.4,0-521c173.6,0,347.4,0,521,0
			c0,125.3,0,250.5,0,375.8c-0.3-0.4-0.8-0.8-0.8-1.3c-3.2-13.4-11.8-21.2-24.8-24.8c-8.4-2.4-16.9-4.7-25.3-7.4
			c-2.2-0.6-5.6-2.5-5.6-3.8c-0.1-4.2-2.5-9.2,2-12.7c15.5-12.2,22.4-28.4,21.9-47.8c-0.1-6.9,0.4-13.4,3.9-19.5
			c1.8-3.3,3.2-7.4,3.3-11.1c0.6-15.9,0.9-31.8,0.9-47.7c0-4.7-3.3-7.4-8.6-7.4c-25.8,0.1-51.8-0.5-77.6,0.8
			c-31,1.5-51.9,37.3-38.7,65.4c2.9,6.2,4.2,12.2,4.1,19c-0.4,19.5,7,35.5,22,48.1c1,0.9,2,2.3,2.3,3.6c1.5,10.2,0.8,11.3-9.3,14.2
			c-2.3,0.6-4.6,1.1-6.7,2c-3.8,1.5-7.4,1.1-11.2-0.4c-8.8-3.4-17.8-6.5-26.6-9.8c-5.9-2.2-12.7-2.8-14.6-10.4
			c-0.1-0.4-0.6-0.9-1-1.1c-11.4-8.3-14.8-19.7-12.7-33.2c0.1-0.5-0.1-1,0-1.5c0.9-2.2,1.5-4.6,2.9-6.5c6.4-8.6,14-16.5,19.5-25.8
			c9-15.3,10.8-32.6,10.2-50c-0.3-6.5,0.6-12.6,3.1-18.8c2.4-6.4,4.2-13.4,4.3-20.2c0.6-29.6,0.6-59.3,0.8-88.8
			c0-5.9-3.1-8.8-8.9-8.8c-38.8,0-77.6-0.8-116.3,0.4c-28.1,0.9-49.1,15.3-61.6,40.6c-11.2,22.6-9.7,46.8-4.3,70.5
			c2.4,10.6,5,20.7,5,31.7c-0.1,22,5.9,42.7,21.1,58.8c9.4,9.8,12.8,19.7,11.3,32.3c0,0.5,0.1,1,0,1.5c-0.9,2.4-1.4,5.2-2.9,7.1
			c-3.8,4.7-8.9,8.6-11.8,13.7c-2,3.6-4.2,5.1-7.6,6.4c-15.3,5.6-30.5,10.9-45.5,17.2c-4.7,2-7.6,1.8-11.3-1.5
			c10-4.7,18.7-10.6,25.6-19.1c3.3-4.1,4.2-8.1,2.2-13.1c-1.4-3.2-2.4-6.7-2.8-10.2c-1.3-11.4-1.9-22.9-3.2-34.3
			c-1.1-11.1-1.3-22.5-4.3-33.1c-8.8-31.2-37.5-49.7-69.3-46.2c-25.8,2.9-48.7,24-54.1,51.5c-2.4,12-2,24.6-3.3,36.8
			c-1.1,11.1-1.8,22.4-4.8,32.9c-2.3,7.6-1.7,13,3.8,18.2c2.3,2.2,4.5,4.7,7.1,6.5c5.1,3.6,10.6,6.9,16.3,10.6
			c-6.4,3.2-12.6,6.2-18.7,9.4c-12.5,6.4-18.7,16.7-18.7,30.7c0,13.5,0,27.1,0,40.6c0,4.7-0.1,9.5,0.1,14.2c0.3,4.5,3.6,7.5,7.5,7.5
			s7.1-3.1,7.6-7.5c0.1-1.4,0.1-2.7,0.1-4.1c0-16.8,0.1-33.5,0-50.2c0-8.3,3.4-14.2,10.9-17.9c6.9-3.3,13.7-6.6,20.4-10.3
			c2.8-1.5,4.5-0.9,6.5,1.1c3.7,3.4,7.4,7.1,11.6,9.8c13.6,8.4,28.2,5.6,41.7-7.3c6.1-5.9,6.1-5.9,12.1-1.5
			c-1.5,8.5-3.9,16.3-4.2,24.2c-0.6,17.6-0.3,35.2-0.1,52.8c0,1.8,0.1,3.7,0.6,5.5c1,3.8,3.8,5.7,7.6,5.3c3.7-0.3,6.2-2.5,6.9-6.4
			c0.3-1.7,0.3-3.4,0.3-5.1c0-17.6,0-35.2,0-52.8c0-10.7,3.9-19.7,14-23.9c16.9-7,34.3-13,51.8-19.5c6.7,10,13.1,19.8,19.7,29.5
			c7.1,10.4,17.7,11.4,26.6,2.5c3.4-3.4,6.2-7.3,9.4-10.9c0.6,0.5,1.3,0.9,1.9,1.4c0,1.8,0,3.6,0,5.3c0,22.9,0,45.7,0,68.6
			c0,7.8,2.5,11.4,7.6,11.4c5.1-0.1,7.6-3.8,7.6-11.6c0-22.9,0-45.7,0-68.6c0-1.8,0.1-3.6,0.3-6.9c4.7,5,8.3,8.9,12.2,12.6
			c7.4,7,17.8,6,23.9-2.2c1.9-2.5,3.6-5.3,5.3-8c5.1-7.8,10.3-15.4,15.4-23.2c16.7,6.1,32.9,11.8,49.1,17.9
			c10.9,4.2,16.7,12.8,16.8,24.7c0.1,10.9,0,22,0,32.9c0,8-0.1,15.9,0,23.9c0.1,4.8,3.2,8,7.4,8.1c4.1,0.1,7.3-3.1,7.8-7.8
			c0.1-1.4,0-2.7,0-4.1c0-13.2-0.1-26.5,0-39.6c0.3-15.1,0.6-30.3-11.2-42.2c8.6-3.7,8.6-3.7,14.6,2.4c3.4,3.4,6.9,7.1,10.4,10.3
			c2.5,2.3,3.3,4.7,3.3,8c-0.1,21.4-0.1,42.6,0,64c0,5.6,3.1,9,7.5,9c4.5,0,7.4-3.4,7.8-8.9c0-1.1,0-2.4,0-3.6
			c0-20.4,0-40.6,0.1-60.9c0-2.2,0.8-4.7,2-6.2c4.6-5.2,9.5-10,14.8-14.8c1.1-1.1,3.6-1.8,5.1-1.4c9.8,2.5,19.5,5.5,29.3,8.4
			c10.8,3.2,14.9,8.6,14.9,20c0,19,0,37.9,0,56.9c0,4.3,0.4,8.3,5.1,10C499.7,437.1,502.3,434,505,430.9z M472.5,403.9
			c0-7.4,0-14.9,0-22.3c0-6.2-2.9-9.8-7.8-9.7c-4.7,0.1-7.4,3.4-7.4,9.5c0,14.9,0,29.8,0,44.5c0,6.2,2.9,9.9,7.8,9.8
			c4.6-0.1,7.4-3.7,7.5-9.7C472.6,418.8,472.5,411.4,472.5,403.9z M32.7,409.1c0-6.1,0.1-12.2,0-18.2c-0.1-5.6-3.1-8.8-7.6-8.8
			c-4.5,0-7.5,3.2-7.5,8.4c-0.1,12.3-0.1,24.7,0,37c0,5.1,3.4,8.4,7.6,8.4c4.3,0,7.4-3.4,7.5-8.5C32.8,421.2,32.7,415.1,32.7,409.1z
			 M342.4,412c0-4.7,0-9.5,0-14.2c0-0.1,0-0.4,0-0.5c-0.3-5.9-3.3-9.3-8-9c-4.5,0.3-7.1,3.4-7.1,9.3c0,9.7,0,19.3,0,29
			c0,6,3.1,9.5,7.6,9.4c4.6-0.1,7.5-3.7,7.6-9.5C342.4,421.4,342.4,416.7,342.4,412z M163,412.2L163,412.2c0-5.2,0.1-10.6,0-15.8
			c-0.1-5-2.9-8-7.3-8.1c-4.2-0.1-7.6,2.8-7.8,7.6c-0.3,10.8-0.3,21.6,0,32.4c0.1,4.7,3.9,8,8,7.5c4.5-0.6,6.9-3.3,7-7.9
			C163.1,422.6,163,417.4,163,412.2z"/>
		<path class="st2" d="M505,430.9c-2.7,3.2-5.3,6.2-10.2,4.3c-4.7-1.8-5.1-5.7-5.1-10c0-19,0-37.9,0-56.9c0-11.3-4.1-16.8-14.9-20
			c-9.7-2.8-19.5-5.7-29.3-8.4c-1.5-0.4-3.9,0.3-5.1,1.4c-5.1,4.7-10,9.5-14.8,14.8c-1.4,1.5-2,4.2-2,6.2
			c-0.1,20.4-0.1,40.6-0.1,60.9c0,1.1,0,2.4,0,3.6c-0.3,5.6-3.2,8.9-7.8,8.9c-4.5,0-7.5-3.4-7.5-9c0-21.4-0.1-42.6,0-64
			c0-3.3-0.8-5.7-3.3-8c-3.7-3.3-7-6.9-10.4-10.3c-6-6-6-6-14.6-2.4c11.8,12,11.4,27.1,11.2,42.2c-0.1,13.2,0,26.5,0,39.6
			c0,1.4,0.1,2.7,0,4.1c-0.4,4.7-3.6,7.9-7.8,7.8c-4.2-0.1-7.3-3.3-7.4-8.1c-0.1-8,0-15.9,0-23.9c0-10.9,0-22,0-32.9
			c-0.1-12-5.9-20.6-16.8-24.7c-16.2-6.1-32.3-11.8-49.1-17.9c-5.1,7.8-10.3,15.4-15.4,23.2c-1.8,2.7-3.4,5.5-5.3,8
			c-6.1,8.1-16.5,9-23.9,2.2c-3.9-3.7-7.5-7.6-12.2-12.6c-0.1,3.3-0.3,5.1-0.3,6.9c0,22.9,0,45.7,0,68.6c0,7.8-2.5,11.6-7.6,11.6
			c-5.1,0.1-7.6-3.7-7.6-11.4c0-22.9,0-45.7,0-68.6c0-1.8,0-3.6,0-5.3c-0.6-0.5-1.3-0.9-1.9-1.4c-3.2,3.7-6,7.5-9.4,10.9
			c-8.9,8.9-19.5,7.9-26.6-2.5c-6.5-9.7-13-19.3-19.7-29.5c-17.4,6.5-34.9,12.5-51.8,19.5c-10,4.2-14,13.2-14,23.9
			c0,17.6,0,35.2,0,52.8c0,1.7,0,3.4-0.3,5.1c-0.5,3.9-3.1,6.1-6.9,6.4c-3.7,0.3-6.6-1.7-7.6-5.3c-0.5-1.8-0.6-3.7-0.6-5.5
			c0-17.6-0.5-35.2,0.1-52.8c0.3-7.9,2.7-15.8,4.2-24.2c-6-4.2-6-4.2-12.1,1.5c-13.5,13-28.1,15.6-41.7,7.3c-4.3-2.7-8-6.2-11.6-9.8
			c-2.2-2-3.7-2.7-6.5-1.1c-6.6,3.7-13.5,6.9-20.4,10.3c-7.5,3.7-10.9,9.5-10.9,17.9c0.1,16.8,0,33.5,0,50.2c0,1.4,0.1,2.7-0.1,4.1
			c-0.5,4.3-3.7,7.5-7.6,7.5s-7.3-3.1-7.5-7.5c-0.3-4.7-0.1-9.4-0.1-14.2c0-13.5,0-27.1,0-40.6c0-14,6.2-24.3,18.7-30.7
			c6.1-3.2,12.3-6.2,18.7-9.4c-5.7-3.7-11.1-6.9-16.3-10.6c-2.5-1.8-4.7-4.3-7.1-6.5c-5.5-5.2-6.1-10.6-3.8-18.2
			c3.2-10.6,3.7-21.9,4.8-32.9c1.3-12.2,0.9-24.8,3.3-36.8c5.5-27.3,28.4-48.6,54.1-51.5c31.8-3.6,60.5,15,69.3,46.2
			c2.9,10.6,3.2,22,4.3,33.1c1.1,11.4,1.9,22.9,3.2,34.3c0.4,3.4,1.5,7,2.8,10.2c2,5,1.1,9-2.2,13.1c-6.9,8.5-15.6,14.4-25.6,19.1
			c3.7,3.3,6.6,3.4,11.3,1.5c14.9-6.4,30.3-11.6,45.5-17.2c3.3-1.3,5.6-2.8,7.6-6.4c2.9-5.2,8-9,11.8-13.7c1.5-1.9,2-4.7,2.9-7.1
			c0.1-0.5,0-1,0-1.5c1.7-12.7-1.9-22.5-11.3-32.3c-15.3-16-21.2-36.8-21.1-58.8c0-10.9-2.5-21.1-5-31.7
			c-5.5-23.7-6.9-47.8,4.3-70.5c12.5-25.3,33.6-39.7,61.6-40.6c38.7-1.1,77.5-0.4,116.3-0.4c5.9,0,9,2.9,8.9,8.8
			c-0.1,29.6-0.1,59.3-0.8,88.8c-0.1,6.7-2,13.7-4.3,20.2c-2.3,6.2-3.2,12.3-3.1,18.8c0.5,17.4-1.1,34.7-10.2,50
			c-5.5,9.2-13,17.2-19.5,25.8c-1.4,1.9-2,4.3-2.9,6.5c-0.1,0.4,0,1,0,1.5c-2,13.5,1.3,24.9,12.7,33.2c0.4,0.3,0.9,0.6,1,1.1
			c1.9,7.6,8.8,8.3,14.6,10.4c8.9,3.3,17.8,6.4,26.6,9.8c3.8,1.5,7.4,1.9,11.2,0.4c2.2-0.9,4.6-1.4,6.7-2c10-2.9,10.8-4.1,9.3-14.2
			c-0.3-1.3-1.3-2.7-2.3-3.6c-15-12.6-22.4-28.6-22-48.1c0.1-6.7-1.1-12.7-4.1-19c-13.2-28.1,7.5-63.9,38.7-65.4
			c25.8-1.3,51.8-0.8,77.6-0.8c5.3,0,8.6,2.7,8.6,7.4c0,15.9-0.3,31.8-0.9,47.7c-0.1,3.7-1.4,7.8-3.3,11.1
			c-3.4,6.2-4.1,12.6-3.9,19.5c0.5,19.5-6.4,35.7-21.9,47.8c-4.6,3.6-2.2,8.5-2,12.7c0,1.4,3.4,3.2,5.6,3.8c8.4,2.7,16.9,5,25.3,7.4
			c13,3.7,21.6,11.6,24.8,24.8c0.1,0.4,0.5,0.8,0.8,1.3C505,383.5,505,407.2,505,430.9z M326.5,69.7c-0.4-0.1-0.9-0.4-1.3-0.4
			c-36,0-72.1-0.5-108.1,0.3c-25.2,0.6-46.9,19.2-52.2,43.8c-3.7,17.6-3.9,35.6,2.2,52.7c3.3,9.4,4.1,18.6,4.1,28.2
			c-0.1,12.8,2.2,25.2,7.6,36.9c13.5,28.9,42,45,74.8,42.2c28.9-2.4,55.6-25.1,62.5-54.4c2.7-11.7,1.9-24.2,2.9-36.3
			c0.3-3.4,1-7,1.9-10.3c1.9-8.1,5.3-16.3,5.6-24.6c0.8-25.7,0.4-51.4,0.5-77.1C327.1,70.5,326.8,70.1,326.5,69.7z M465.3,191.7
			c-1.3-0.1-2-0.3-2.9-0.3c-20.5,0-41,0-61.4,0c-3.1,0-6.1,0.4-9,1.1c-21,5.1-31.4,28.7-21.4,46.2c3.4,6,4.3,12.2,4.5,19
			c0,6.5,0.6,13.2,2.3,19.5c4.3,16.2,18.8,27.5,36.4,29.3c14.5,1.5,30.7-7.4,38.3-21.1c4.3-7.6,5.6-15.9,5.3-24.4
			c-0.3-8,0.3-15.6,4.5-23c2.3-3.9,3.3-9,3.4-13.6C465.6,213.7,465.3,203,465.3,191.7z M115.5,256.2c1.4-19.6-3.4-35.5-14.2-48.5
			c-15.6-18.7-46.2-21.2-64.9-5.6c-17.6,14.6-20.9,34.1-20.4,55.1c7.3,2.4,7.9,3.2,8.8,10.8c0.1,0.9,0.3,1.7,0.4,2.5
			c2.5,18.3,16.9,33.5,34,35.5c20.7,2.4,37.7-7.3,45.2-25.7c2.3-5.6,2.2-10.4-1.7-15.5c-9.8-13.4-23.5-19.6-39.2-23
			c-7.3-1.5-13.2-0.9-17.6,5.7c-1,1.5-2.5,2.8-3.8,4.1c-3.7,3.6-8.1,3.9-11.3,1c-3.3-3.1-3.2-7.8,0.5-11.7s7.6-7.8,11.2-11.7
			c2.8-3.1,6-3.9,9.9-3.8C77.6,226.8,99.4,235,115.5,256.2z M203.8,279c0,4.6-0.1,8,0.1,11.6c0.1,1.3,0.9,3.1,1.9,3.8
			c13,9,26.2,17.9,39.3,27c13.2-9,26.2-17.8,39.2-26.8c1-0.8,2-2.4,2.2-3.7c0.3-3.6,0.1-7.3,0.1-11.6
			C258.7,292.3,231.7,292.6,203.8,279z M258,331c6.4,6.5,12.6,12.7,19.1,19.3c6-8.9,12.1-18.1,18.3-27.3c5.7-8.5,5.6-8.5-2-15.1
			c-0.1-0.1-0.3-0.1-1-0.3C280.9,315.4,269.1,323.4,258,331z M213.2,350.3c6.5-6.5,12.7-12.7,19.2-19.2c-11.3-7.8-23.2-15.8-35.2-24
			c-2,2.3-4.1,4.1-5.7,6.2c-0.6,0.9-1,2.9-0.5,3.8C198.5,328.3,206,339.4,213.2,350.3z M49.2,320.8c-0.3,7.9-3.7,17.3,7.5,22.8
			c6.4,3.1,12,3.1,18.3,0c11.1-5.5,8.1-14.8,7.1-22.8C71.2,320.8,60.4,320.8,49.2,320.8z M416,344.7c5-5.1,8.9-9.8,13.4-13.7
			c3.7-3.3,4.5-6.7,3.3-10.3c-11.2,0-22.1,0-33.7,0c0.4,2.2-0.1,5.6,1.5,7.6C404.9,333.9,410.2,338.9,416,344.7z M14,287.7
			c-1.4,5.7-2.8,10.6-3.8,15.5c-0.3,1.1,0.3,3.1,1,3.9c6.2,6.4,13.6,10.7,23.3,13.7c-0.9-4.1-0.5-8.4-2.4-9.9
			C24.8,304.5,18.7,297.3,14,287.7z M98.3,320.6c8.4-3.1,15.8-6.9,21.8-13.1c0.9-1,1.9-2.7,1.7-3.8c-1-5.1-2.5-10-3.7-14.1
			c-5,6-9.7,12.8-15.6,18.3C98.5,311.5,97.1,315,98.3,320.6z"/>
		<path class="st3" d="M472.5,403.9c0,7.4,0,14.9,0,22.3c0,6-2.9,9.5-7.5,9.7c-4.7,0.1-7.8-3.6-7.8-9.8c0-14.9,0-29.8,0-44.5
			c0-6,2.7-9.4,7.4-9.5c4.8-0.1,7.8,3.4,7.8,9.7C472.6,389.1,472.5,396.5,472.5,403.9z"/>
		<path class="st3" d="M32.7,409.1c0,6.1,0.1,12.2,0,18.2c-0.1,5.1-3.2,8.5-7.5,8.5s-7.6-3.3-7.6-8.4c-0.1-12.3-0.1-24.7,0-37
			c0-5.2,3.2-8.4,7.5-8.4c4.6,0,7.5,3.3,7.6,8.8C32.8,396.9,32.7,403,32.7,409.1z"/>
		<path class="st3" d="M342.4,412c0,4.7,0.1,9.5,0,14.2c-0.1,6-3.1,9.5-7.6,9.5c-4.6,0.1-7.6-3.6-7.6-9.4c0-9.7,0-19.3,0-29
			c0-5.7,2.7-9,7.1-9.3c4.7-0.3,7.8,3.2,8,9c0,0.1,0,0.4,0,0.5C342.4,402.5,342.4,407.3,342.4,412z"/>
		<path class="st3" d="M163,412.2c0,5.2,0.1,10.4,0,15.8c-0.1,4.6-2.5,7.3-7,7.9c-3.9,0.5-7.8-2.8-8-7.5c-0.3-10.8-0.3-21.6,0-32.4
			c0.1-4.8,3.6-7.8,7.8-7.6c4.2,0.1,7,3.2,7.3,8.1C163.1,401.6,163,406.9,163,412.2L163,412.2z"/>
		<path class="st1" d="M326.5,69.7c0.3,0.4,0.5,0.6,0.5,1c0,25.7,0.4,51.4-0.5,77.1c-0.3,8.3-3.8,16.3-5.6,24.6
			c-0.8,3.4-1.5,6.9-1.9,10.3c-1,12.1-0.3,24.6-2.9,36.3c-6.7,29.5-33.6,52-62.5,54.4c-32.8,2.8-61.3-13.4-74.8-42.2
			c-5.5-11.7-7.8-24-7.6-36.9c0.1-9.7-0.6-18.8-4.1-28.2c-6.1-17-6-35.1-2.2-52.7c5.2-24.6,27-43.1,52.2-43.8
			c36-0.9,72.1-0.3,108.1-0.3C325.7,69.3,326.2,69.6,326.5,69.7z M195.7,141.6c17.2-2.4,34-3.7,50.9-2.3
			c18.4,1.5,36.3,4.7,50.6,17.7c3.4,3.1,7.8,2.4,10.4-0.6c2.9-3.3,2.5-7.6-1.3-11.2c-10.2-9.7-22.5-14.9-35.9-17.8
			c-25.4-5.6-51-4.6-76.6-0.9c-7.5,1-12.7,6.9-13.4,14.5c-0.4,5.6-0.3,11.2-0.3,16.7c0.1,6.2,2.8,9.4,7.6,9.4s7.4-3.2,7.5-9.4
			C195.8,152.3,195.7,147.1,195.7,141.6z"/>
		<path class="st1" d="M465.3,191.7c0,11.2,0.4,21.9-0.1,32.6c-0.3,4.6-1.3,9.7-3.4,13.6c-4.2,7.4-4.7,15-4.5,23
			c0.3,8.5-1,16.8-5.3,24.4c-7.6,13.7-23.8,22.6-38.3,21.1c-17.6-1.9-32.1-13.1-36.4-29.3c-1.7-6.2-2.3-13-2.3-19.5
			c0-6.7-1-13-4.5-19c-10-17.4,0.4-41.1,21.4-46.2c2.9-0.8,6-1,9-1.1c20.5-0.1,41,0,61.4,0C463.2,191.5,464.1,191.6,465.3,191.7z
			 M447.9,230.9c-1.1-1.1-2.9-4.1-5.5-5.2c-16.3-7.1-33.6-8.1-51-8.4c-4.6,0-7.4,3.3-7.3,7.5c0.1,4.3,2.5,7,6.9,7.3
			c16.2,1.1,32.3,2,47.7,7.8C443.4,241.6,448,237.5,447.9,230.9z"/>
		<path class="st1" d="M115.5,256.2c-16.3-21.1-38-29.4-63.1-30.8c-4.1-0.3-7.3,0.8-9.9,3.8c-3.7,4.1-7.5,7.8-11.2,11.7
			s-3.8,8.6-0.5,11.7c3.2,2.9,7.6,2.5,11.3-1c1.4-1.3,2.9-2.5,3.8-4.1c4.3-6.7,10.3-7.4,17.6-5.7c15.6,3.3,29.4,9.7,39.2,23
			c3.8,5.1,3.9,9.9,1.7,15.5c-7.5,18.4-24.4,28.1-45.2,25.7c-16.9-2-31.4-17.2-34-35.5c-0.1-0.9-0.3-1.7-0.4-2.5
			c-0.9-7.6-1.4-8.3-8.8-10.8c-0.5-21,2.8-40.6,20.4-55.1c18.7-15.5,49.2-13.1,64.9,5.6C112.2,220.7,117,236.6,115.5,256.2z"/>
		<path class="st1" d="M203.8,279c27.9,13.6,54.8,13.4,82.6,0.3c0,4.3,0.1,8-0.1,11.6c-0.1,1.3-1,2.9-2.2,3.7
			c-12.8,8.9-25.9,17.8-39.2,26.8c-13.1-9-26.3-17.9-39.3-27c-1-0.8-1.8-2.4-1.9-3.8C203.7,287.1,203.8,283.6,203.8,279z"/>
		<path class="st1" d="M258,331c11.2-7.6,22.9-15.6,34.3-23.5c0.8,0.1,0.9,0.1,1,0.3c7.6,6.7,7.6,6.7,2,15.1
			c-6.1,9.2-12.3,18.4-18.3,27.3C270.6,343.7,264.3,337.5,258,331z"/>
		<path class="st1" d="M213.2,350.3c-7.3-10.9-14.8-22-22.1-33.3c-0.5-0.9-0.3-2.8,0.5-3.8c1.5-2.2,3.6-3.9,5.7-6.2
			c12.1,8.3,23.8,16.3,35.2,24C225.9,337.6,219.7,343.8,213.2,350.3z"/>
		<path class="st1" d="M49.2,320.8c11.2,0,22,0,32.9,0c1,8,3.9,17.2-7.1,22.8c-6.4,3.2-12,3.2-18.3,0
			C45.7,338.1,49,328.7,49.2,320.8z"/>
		<path class="st1" d="M416,344.7c-5.7-6-11.1-10.9-15.5-16.4c-1.5-1.9-1.1-5.5-1.5-7.6c11.6,0,22.5,0,33.7,0
			c1.1,3.4,0.5,7-3.3,10.3C424.7,334.9,420.9,339.6,416,344.7z"/>
		<path class="st1" d="M14,287.7c4.7,9.7,10.7,16.8,18.2,23.2c1.9,1.7,1.5,6,2.4,9.9c-9.7-3.2-17.2-7.4-23.3-13.7
			c-0.9-0.9-1.3-2.7-1-3.9C11.2,298.3,12.6,293.5,14,287.7z"/>
		<path class="st1" d="M98.3,320.6c-1.4-5.7,0.1-9,4.2-12.7c6-5.3,10.6-12.2,15.6-18.3c1.1,4.2,2.5,9.2,3.7,14.1
			c0.3,1.1-0.8,2.8-1.7,3.8C114.2,313.7,106.9,317.5,98.3,320.6z"/>
		<path class="st3" d="M195.7,141.6c0,5.6,0.1,10.8,0,16c-0.1,6.2-2.8,9.4-7.5,9.4c-4.8,0-7.5-3.2-7.6-9.4
			c-0.1-5.6-0.3-11.2,0.3-16.7c0.5-7.6,5.9-13.4,13.4-14.5c25.6-3.7,51.1-4.7,76.6,0.9c13.4,2.9,25.7,8.1,35.9,17.8
			c3.8,3.6,4.2,7.9,1.3,11.2c-2.7,3.1-7.1,3.6-10.4,0.6c-14.5-13-32.3-16.2-50.6-17.7C229.7,137.8,213,139,195.7,141.6z"/>
		<path class="st3" d="M447.9,233.6c0.1,4.8-4.5,7.8-9.3,6.5c-15.4-4.1-31.5-4.8-47.7-5.6c-4.3-0.1-6.7-2.2-6.9-5.2
			c-0.1-3.1,2.7-5.5,7.3-5.5c17.4,0.1,34.7,0.9,51,6.1C445,230.5,446.8,232.5,447.9,233.6z"/>
	</g>
	<g>
		<path class="st4" d="M29.8,308.5c0-93,0-185.8,0-278.7c143.2,0,286.3,0,429.4,0c0,143.2,0,286.3,0,429.4c-143.2,0-286.3,0-429.4,0
			c0-11.7,0-23.5,0-35.2c2.4,5.1,6.4,6.7,12,6.6c15.3-0.1,30.7,0,45.9,0c8.4,0,10.3-1.4,13.5-9.2c0.8,0.1,1.7,0.3,2.4,0.4
			c36.6,9.9,73.4,19.8,110,30c16,4.6,32.2,5.3,48.2,0.6c8.4-2.5,16.8-5.1,25.2-7.6c33.1-10.6,66-21.2,99.1-31.8
			c8.6-2.8,15.9-7.1,20.7-15.1c8.9-14.9,1.9-31.9-14.9-35.5c-4.2-0.9-8.6-1.1-12.8-0.6c-6.7,0.9-13.4,2.7-20.1,4.1
			c-9.7,1.9-19.3,3.8-30,5.9c1.7-1.8,2.5-2.9,3.4-3.8c23.3-23.9,46.7-47.4,69.8-71.6c34.5-35.9,42.6-77.8,27.6-124.9
			c-0.9-2.7-0.8-4.1,1.5-5.9c28.1-23.4,35.2-63.2,16.8-94.6c-18.4-31.5-56.7-45.3-91-31.8c-6.9,2.7-13.2,7-19.5,11.1
			c-3.2,2-3.4,5.7-1.5,8.5c2,2.9,5.5,3.4,8.9,1.4c0.8-0.4,1.4-1,2-1.5c13.6-9.8,28.7-13.9,45.4-11.4c35,4.8,59,38.7,52.2,73
			c-7.1,35.1-42,57-76.1,48.1c-37.5-9.8-56.5-49.9-40.7-86.1c2.2-4.8,1.1-8.3-2.5-9.9c-3.7-1.5-6.6,0-8.8,4.7
			c-4.7,9.8-6.9,20.2-7,31.2c0,2.7-0.8,3.8-3.3,4.8c-14.1,5.3-26.5,13.5-37.5,23.9c-3.1,2.9-6,5.7-9.7,9.2c-2-2.3-3.7-4.6-5.6-6.5
			c-17.9-17.7-39.1-29.5-64.4-33.1c-28.9-4.1-54.2,3.7-74.9,24.7c-3.4,3.4-3.7,7.3-0.8,9.9c2.9,2.7,6.1,2.4,9.5-1
			c20.7-20.9,45.7-25.8,73.7-19.2c20.9,5.1,37.7,16.8,52.4,32.1c8.6,8.9,12,8.5,21.2,0.1c8.3-7.4,16.9-14.5,25.8-21
			c4.5-3.2,9.7-5.1,14.8-7.6c10.3,44.9,60.4,73.4,106.7,50.9c0.4,0.8,0.8,1.5,1,2.3c12.1,39.9,5.9,76.5-22.9,107.2
			c-28.2,30.3-57.8,59.4-86.6,89c-0.9,0.9-1.8,2.2-2.9,2.4c-9,1.4-18.3,4.6-27.1,3.6c-19.7-2.3-39.3-6.5-58.9-9.9
			c-6-1-9.4-5-8.5-9.8c1-5.3,4.7-7.5,10.9-6.6c9.9,1.3,19.8,2.9,29.9,3.7c7.1,0.6,14.6,1.3,21.6,0c15.6-2.7,25.1-16.9,20.9-31.4
			c-3.9-13.5-14.1-20.4-27-23.7c-6.7-1.7-13.7-2.5-20.5-3.9c-16.5-3.6-33.3-5.1-50.2-2.2c-16.9,3.1-34.1,5.9-51.1,8.5
			c-1.7,0.3-3.9-0.4-5.1-1.4c-6.4-6.1-12.8-12.6-18.7-19.1c-22.1-24.3-30.3-53-26.7-85.5c1.3-12.1,5.1-23.4,10-34.3
			c1-2.2,0.6-5.5-0.5-7.6c-0.8-1.4-4.3-2.4-6.1-1.9c-1.8,0.5-3.8,2.8-4.8,4.7c-22.3,44.3-13.5,100,21.1,135.3
			c4.1,4.1,8.3,7.8,12.6,11.7c-0.3,0.4-0.5,0.9-0.8,1.3c-8.6,1.4-17.4,2.9-25.9,4.3c-2.9-8-4.8-9.4-13.4-9.4
			c-15.1,0-30.1,0.1-45.3-0.1C37,302.4,32.7,303.9,29.8,308.5z M260.4,211.2c1.1,2,2,3.4,2.8,5c9.5,17.4,19.1,35,28.7,52.4
			c3.8,6.7,8.9,6.7,13,0.1c5.6-9.3,11.3-18.6,16.5-28c1.8-3.1,3.6-4.3,7.1-4.2c14.1,0.3,28.1,0.1,42.2,0.1c5.2,0,8-2.3,8-6.2
			s-2.8-6.1-8.1-6.1c-15.9,0-31.8,0.1-47.7-0.1c-4.6,0-7.3,1.5-9.4,5.3c-4.8,8.3-9.8,16.4-15,25.2c-1-1.7-1.8-3.1-2.5-4.3
			c-9.7-17.7-19.3-35.4-29.1-53.2c-3.8-6.7-9-6.7-13-0.1c-6.9,12.1-13.9,24.2-20.7,36.3c-0.8,1.4-1.7,2.8-2.9,4.8
			c-4.8-7.6-9.3-14.9-13.9-21.9c-3.9-6.1-8.8-6-12.6,0c-4.2,6.7-8,13.7-12.5,20.4c-0.9,1.3-2.9,2.5-4.6,2.5
			c-10.3,0.3-20.6,0.1-30.9,0.1c-5.1,0-7.8,2.2-7.8,6.1c-0.1,4.2,2.8,6.4,7.9,6.4c11.7,0,23.5-0.1,35.2,0.1c4.2,0,6.7-1.4,8.8-5
			c3.2-5.5,6.5-10.9,10.2-16.9c4.8,7.5,9.2,14.6,13.5,21.5c4.6,7.3,9.4,7.1,13.7-0.3C245.1,237.9,252.6,224.8,260.4,211.2z
			 M377.7,102c-6.2,0-12.1-0.1-17.7,0c-4.6,0.1-7.3,2.8-7.1,6.5c0.1,3.7,2.8,5.9,7.1,6c4.8,0.1,9.4,0.1,14.2,0
			c2.8-0.1,3.7,1,3.6,3.7c-0.1,5.1-0.1,10.3,0.1,15.4c0.1,3.4,2.3,5.3,5.5,5.6c3.6,0.3,5.9-1.7,6.5-5.1c0.3-1.5,0.3-3.1,0.3-4.6
			c0-5,0-9.7,0-14.9c1.7-0.1,2.9-0.3,4.2-0.3c5,0,9.8,0.1,14.6-0.1c3.6-0.1,5.6-2.3,5.9-5.7c0.1-3.7-1.8-5.7-5.2-6.4
			c-1.8-0.3-3.7-0.3-5.3-0.3c-4.6,0-9,0-14,0c0-6,0-11.6,0-16.9c-0.1-5.1-2.3-7.6-6.2-7.6c-4.1,0-6.1,2.7-6.2,7.6
			C377.6,90.5,377.7,95.8,377.7,102z"/>
		<path class="st5" d="M29.8,308.5c3.1-4.7,7.3-6.1,12.8-6c15.1,0.3,30.1,0.1,45.3,0.1c8.5,0,10.4,1.3,13.4,9.4
			c8.6-1.4,17.3-2.9,25.9-4.3c0.3-0.4,0.5-0.9,0.8-1.3c-4.2-3.9-8.5-7.5-12.6-11.7C80.8,259.4,72,203.7,94.3,159.4
			c1-1.9,2.9-4.2,4.8-4.7c1.9-0.5,5.2,0.4,6.1,1.9c1.1,2,1.5,5.5,0.5,7.6c-5.1,10.9-8.8,22.3-10,34.3c-3.6,32.3,4.8,61.1,26.7,85.5
			c6,6.6,12.3,13,18.7,19.1c1.1,1.1,3.4,1.7,5.1,1.4c17-2.8,34.2-5.5,51.1-8.5s33.6-1.4,50.2,2.2c6.7,1.4,13.9,2.3,20.5,3.9
			c13,3.3,23.2,10.2,27,23.7c4.2,14.5-5.1,28.7-20.9,31.4c-7,1.1-14.5,0.6-21.6,0c-10-0.9-20-2.4-29.9-3.7
			c-6.4-0.9-9.9,1.4-10.9,6.6c-0.9,5,2.4,8.8,8.5,9.8c19.6,3.6,39.2,7.6,58.9,9.9c8.8,1,18.1-2.2,27.1-3.6c1-0.1,2-1.5,2.9-2.4
			c29-29.6,58.4-58.8,86.6-89c28.7-30.9,35-67.3,22.9-107.2c-0.3-0.8-0.6-1.5-1-2.3c-46.4,22.5-96.4-6-106.7-50.9
			c-5.1,2.5-10.4,4.5-14.8,7.6c-8.9,6.5-17.7,13.6-25.8,21c-9.3,8.4-12.6,8.8-21.2-0.1c-14.9-15.1-31.5-27-52.4-32.1
			c-27.9-6.6-52.8-1.7-73.7,19.2c-3.4,3.4-6.7,3.7-9.5,1c-2.9-2.7-2.7-6.5,0.8-9.9c20.7-21,45.9-28.5,74.9-24.7
			c25.2,3.6,46.3,15.3,64.4,33.1c2,2,3.7,4.2,5.6,6.5c3.7-3.6,6.6-6.4,9.7-9.2c10.9-10.3,23.5-18.3,37.5-23.9c2.5-1,3.3-2.2,3.3-4.8
			c0-10.9,2.3-21.4,7-31.2c2.3-4.7,5.1-6.1,8.8-4.7c3.8,1.7,4.7,5.1,2.5,9.9c-15.8,36.1,3.2,76.2,40.7,86.1
			c34.2,8.9,68.9-13.1,76.1-48.1c7-34.5-17.2-68.2-52.2-73c-16.7-2.3-31.8,1.7-45.4,11.4c-0.6,0.5-1.4,1-2,1.5
			c-3.4,2-6.7,1.5-8.9-1.4c-1.9-2.8-1.7-6.5,1.5-8.5c6.2-4.1,12.6-8.4,19.5-11.1c34.2-13.4,72.5,0.3,91,31.8
			c18.3,31.4,11.3,71.2-16.8,94.6c-2.3,1.9-2.4,3.4-1.5,5.9c15,46.9,6.7,88.9-27.6,124.9c-23.2,24.2-46.6,47.7-69.8,71.6
			c-1,1-1.8,2-3.4,3.8c10.7-2.2,20.4-3.9,30-5.9c6.6-1.4,13.4-3.2,20.1-4.1c4.2-0.5,8.6-0.3,12.8,0.6c16.7,3.8,23.8,20.7,14.9,35.5
			c-4.8,7.9-12.2,12.5-20.7,15.1c-33.1,10.6-66,21.2-99.1,31.8c-8.4,2.7-16.7,5.2-25.2,7.6c-16,4.7-32.2,3.8-48.2-0.6
			c-36.6-10.2-73.4-20.1-110-30c-0.8-0.3-1.7-0.3-2.4-0.4c-3.2,7.9-5.1,9.2-13.5,9.2c-15.3,0-30.7-0.1-45.9,0c-5.3,0-9.5-1.7-12-6.6
			C29.8,385.6,29.8,346.9,29.8,308.5z M100.4,407.7c1.1,0.4,2,0.9,2.9,1.1c38.5,10.6,77.1,21,115.8,31.5c12.8,3.6,25.7,4.3,38.4,0.4
			c42.6-13.4,85.2-26.8,127.7-40.7c3.8-1.3,7.6-4.5,10-7.6c6-7.9,2.4-16.2-7.3-17.8c-2.5-0.4-5.2-0.5-7.9-0.1
			c-4.5,0.6-8.6,1.9-13.1,2.8c-21,4.2-42.1,8.5-63.2,12.3c-8.6,1.7-17.8,3.8-26.3,2.7c-21-2.7-41.9-6.6-62.6-10.8
			c-11.1-2.2-17.3-13.1-15.1-24.3c2.2-11.1,11.4-17.8,23-16.4c9.8,1.1,19.6,2.8,29.4,3.7c6.9,0.6,14.1,1.4,20.7,0.1
			c11.1-2.2,14.1-13.4,6.6-21.9c-4.3-5-9.9-7.5-16.3-8.6c-5.7-1-11.6-2-17.2-3.2c-15.1-3.2-30.1-5.1-45.5-2.4
			c-32.1,5.5-64,10.9-95.9,16c-3.2,0.5-3.8,1.7-3.8,4.6c0.1,18.7,0,37.4,0,56C100.4,392.4,100.4,400.1,100.4,407.7z M87.7,315.4
			c-15.3,0-30.3,0-45.3,0c0,34.3,0,68.2,0,102.3c15.1,0,30.1,0,45.3,0C87.7,383.5,87.7,349.7,87.7,315.4z"/>
		<path class="st6" d="M260.4,211.2c-7.8,13.6-15.1,26.6-22.8,39.7c-4.3,7.4-9,7.4-13.7,0.3c-4.5-6.9-8.6-13.9-13.5-21.5
			c-3.7,6-7,11.4-10.2,16.9c-2,3.6-4.8,5.1-8.8,5c-11.7-0.1-23.5,0-35.2-0.1c-5.2,0-8-2.3-7.9-6.4s2.8-6,7.8-6.1
			c10.3,0,20.6,0.1,30.9-0.1c1.5,0,3.7-1.3,4.6-2.5c4.3-6.6,8.3-13.6,12.5-20.4c3.8-6.1,8.6-6.1,12.6,0c4.6,7.1,9,14.4,13.9,21.9
			c1.1-2,2-3.3,2.9-4.8c6.9-12.1,13.9-24.3,20.7-36.3c3.9-6.6,9.2-6.6,13,0.1c9.8,17.7,19.5,35.4,29.1,53.2c0.8,1.3,1.5,2.7,2.5,4.3
			c5.1-8.6,10.2-16.8,15-25.2c2.2-3.9,5.1-5.3,9.4-5.3c15.9,0.3,31.8,0.1,47.7,0.1c5.3,0,8.1,2.2,8.1,6.1c0,4.1-2.8,6.2-8,6.2
			c-14.1,0-28.1,0.1-42.2-0.1c-3.7,0-5.3,1.1-7.1,4.2c-5.3,9.4-11.1,18.7-16.5,28c-4.1,6.6-9.2,6.5-13-0.1
			c-9.5-17.4-19.2-35-28.7-52.4C262.4,214.5,261.5,213.2,260.4,211.2z"/>
		<path class="st6" d="M377.7,102c0-6.1,0-11.6,0-16.9c0-5.1,2.3-7.6,6.2-7.6c4.1,0,6.1,2.7,6.2,7.6c0.1,5.3,0,10.8,0,16.9
			c4.8,0,9.4,0,14,0c1.8,0,3.7,0,5.3,0.3c3.6,0.6,5.3,2.8,5.2,6.4c-0.1,3.7-2.3,5.6-5.9,5.7c-5,0.3-9.8,0.1-14.6,0.1
			c-1.3,0-2.4,0.1-4.2,0.3c0,5.1,0,9.9,0,14.9c0,1.5,0,3.2-0.3,4.6c-0.8,3.6-3.1,5.3-6.5,5.1c-3.3-0.3-5.3-2.3-5.5-5.6
			c-0.3-5.1-0.3-10.3-0.1-15.4c0.1-2.7-0.8-3.8-3.6-3.7c-4.8,0.3-9.4,0.1-14.2,0c-4.5-0.1-7-2.4-7.1-6c-0.1-3.8,2.5-6.4,7.1-6.5
			C365.7,101.9,371.3,102,377.7,102z"/>
		<path class="st4" d="M100.4,407.7c0-7.6,0-15.3,0-23c0-18.7,0-37.4,0-56c0-2.9,0.8-4.1,3.8-4.6c32.1-5.2,64.1-10.6,95.9-16
			c15.4-2.7,30.5-0.8,45.5,2.4c5.7,1.1,11.6,2.2,17.2,3.2c6.4,1.1,12,3.8,16.3,8.6c7.4,8.5,4.5,19.7-6.6,21.9
			c-6.6,1.3-13.9,0.5-20.7-0.1c-9.8-0.9-19.6-2.5-29.4-3.7c-11.6-1.4-20.9,5.3-23,16.4c-2.2,11.2,4.2,22.1,15.1,24.3
			c20.7,4.2,41.6,8.1,62.6,10.8c8.5,1.1,17.7-1.1,26.3-2.7c21.1-3.8,42.1-8.1,63.2-12.3c4.5-0.9,8.6-2.2,13.1-2.8
			c2.5-0.4,5.2-0.3,7.9,0.1c9.8,1.7,13.5,10,7.3,17.8c-2.5,3.3-6.2,6.4-10,7.6c-42.5,13.9-85.1,27.3-127.7,40.7
			c-12.7,4.1-25.6,3.2-38.4-0.4c-38.5-10.6-77.1-21-115.8-31.5C102.4,408.6,101.5,408.1,100.4,407.7z"/>
		<path class="st4" d="M87.7,315.4c0,34.2,0,68.1,0,102.3c-15.1,0-30,0-45.3,0c0-34.1,0-67.9,0-102.3
			C57.4,315.4,72.4,315.4,87.7,315.4z"/>
	</g>
	<g class="st0">
		<path class="st1" d="M439.5,279.9c0,53.2,0,106.3,0,159.6c-130,0-259.9,0-390,0c0-130,0-260,0-390c48.8,0,97.8,0,146.7,0
			c-3.7,0.6-7.5,1-11.2,1.9c-24.3,6.1-40.7,21.4-47.7,45.3c-7.1,24.3-1.1,46,16.3,64.5c5.2,5.6,10.7,10.8,16,16.2
			c23,23.2,46,46.4,69.1,69.6c4.7,4.7,7.8,4.7,12.5,0c2.5-2.5,5-5.1,7.5-7.5c26.6-27,53.7-53.4,79.6-80.9
			c31.4-33.2,17.2-89.9-25.9-105.2c-4.8-1.7-9.9-2.5-15-3.8c47.4,0,94.8,0,142.2,0c0,68.4,0,136.9,0,205.3c-0.3-1.5-0.6-2.9-0.8-4.5
			c-1.5-16-5.2-31.4-11.3-46.3c-1.7-4.2-4.5-6-7.8-5c-1.9,0.6-3.6,1.8-5.2,2.9c-19.8,14-41.7,23.2-65.5,27.9
			c-16.7,3.3-33.6,6.4-49.9,11.4c-25.7,8.1-46.9,23.2-61.2,46.7c-0.3,0.4-0.6,0.6-1.1,1c-6.6-12.3-14.8-23.3-25.1-32.4
			c-15.9-14.1-34.9-21.8-55.3-26.1c-11.2-2.3-22.5-3.9-33.6-6.5c-18.3-4.2-35.1-12-50.5-22.9c-5.2-3.7-9.3-2.5-11.7,3.3
			c-1,2.3-1.9,4.7-2.7,7.1c-12.2,37-10,73.4,5,109c14,32.9,36.5,58.3,69.7,72.8c30.1,13.2,61.6,14.1,93.4,6.6c4.3-1,5.9-3.2,5.9-8
			c0.1-21.9,1.1-43.8,5.3-65.4c5.9-30,22.1-52,49.2-66c16.2-8.4,33.6-12.7,51.4-15.5c22.1-3.6,43.6-9.2,63.5-19.8
			c5.6-3.1,10.9-6.4,16.4-9.5c0.3,0.3,0.4,0.4,0.5,0.6c0.4,0.9,0.6,1.9,1,2.9c9.4,30.1,9.8,60.5,2.2,91.1
			c-9.8,38.8-30.4,70.5-64.5,92.4c-23,14.9-48.6,21.8-75.7,23.2c-7.5,0.4-15,0-23.4,0c3.6-6.4,6.5-12,9.8-17.6
			c22.1-37,51-67.7,86.5-92c4.3-2.9,5.3-6.6,3.1-9.9c-2.3-3.4-6.1-3.8-10.3-0.9c-27.5,19-51.5,41.3-71.9,67.8
			c-12.7,16.7-23.9,34.2-31.9,53.7c-0.9,2.2-1,5-0.3,7.1c1,3.2,4.3,3.4,7.4,3.7c14.8,1.3,29.4,1.1,44-0.8
			c21.6-2.8,42.6-7.9,61.7-18.8c45.8-26.2,70.3-67,80.5-117.7C437.9,294,438.5,286.9,439.5,279.9z"/>
		<path class="st2" d="M439.5,279.9c-1,7-1.7,14-3.1,21c-10.2,50.6-34.7,91.5-80.5,117.7c-19.1,10.9-40.1,16-61.7,18.8
			c-14.6,1.9-29.3,2-44,0.8c-2.9-0.3-6.2-0.5-7.4-3.7c-0.8-2.2-0.6-5.1,0.3-7.1c8-19.5,19.1-37.1,31.9-53.7
			c20.4-26.5,44.4-48.8,71.9-67.8c4.2-2.9,8-2.5,10.3,0.9c2.3,3.3,1.3,7-3.1,9.9c-35.6,24.3-64.5,55-86.5,92
			c-3.3,5.5-6.2,11.2-9.8,17.6c8.3,0,15.9,0.4,23.4,0c27.1-1.4,52.7-8.4,75.7-23.2c34.1-22,54.6-53.6,64.5-92.4
			c7.8-30.5,7.4-60.9-2.2-91.1c-0.3-1-0.6-1.9-1-2.9c-0.1-0.3-0.3-0.4-0.5-0.6c-5.5,3.2-10.8,6.5-16.4,9.5
			c-19.8,10.8-41.2,16.4-63.5,19.8c-17.8,2.8-35.2,7.3-51.4,15.5c-27.1,14-43.4,36-49.2,66c-4.2,21.6-5.2,43.5-5.3,65.4
			c0,4.8-1.5,7-5.9,8c-31.8,7.5-63.2,6.6-93.4-6.6C99.5,379.2,76.8,353.9,63,321c-15-35.6-17.3-72-5-109c0.8-2.4,1.8-4.7,2.7-7.1
			c2.4-5.9,6.4-7,11.7-3.3c15.4,10.8,32.2,18.7,50.5,22.9c11.1,2.5,22.4,4.1,33.6,6.5c20.5,4.3,39.4,12,55.3,26.1
			c10.3,9.2,18.4,20.1,25.1,32.4c0.5-0.4,0.9-0.6,1.1-1c14.4-23.5,35.5-38.5,61.2-46.7c16.3-5.1,33.1-8.1,49.9-11.4
			c23.8-4.8,45.7-13.9,65.5-27.9c1.7-1.1,3.3-2.4,5.2-2.9c3.3-1,6.1,0.8,7.8,5c6.1,14.9,9.7,30.3,11.3,46.3c0.1,1.5,0.5,2.9,0.8,4.5
			C439.5,263.2,439.5,271.5,439.5,279.9z M70.4,215c-0.5,1.7-1,2.8-1.4,3.9c-8,26.2-7.9,52.4-0.5,78.6c15,53.3,58.9,95.5,123,93.9
			c6.9-0.1,13.7-1.1,21.4-1.7c-1.1-2-1.7-3.4-2.5-4.6c-8.5-11.2-16.5-22.8-25.7-33.3c-17.2-19.6-37.4-36-58.9-50.8
			c-4.3-2.9-5.2-6.6-2.9-9.9c2.3-3.3,6.1-3.6,10.3-0.6c4.8,3.3,9.5,6.6,14.2,10.2c26.5,20,50.4,42.4,69.1,70
			c0.6,0.9,1.3,1.8,2.2,2.9c0.1-0.8,0.4-1.1,0.4-1.5c0.3-22.1,3.7-43.9,10.3-65c0.4-1.3,0.3-3.1-0.3-4.3
			c-6.5-15.4-15.9-28.7-29-39.3c-13.9-11.3-30.3-17.2-47.4-20.9c-13-2.7-26.2-4.7-39.1-7.9C98.1,230.9,84,224,70.4,215z"/>
		<path class="st3" d="M297.3,49.5c5,1.3,10.2,2,15,3.8c43.1,15.1,57.5,72,25.9,105.2c-26.1,27.5-53,54.1-79.6,80.9
			c-2.5,2.5-5,5.1-7.5,7.5c-4.7,4.7-7.8,4.8-12.5,0c-23-23.2-46-46.4-69.1-69.6c-5.3-5.3-10.8-10.7-16-16.2
			c-17.3-18.4-23.3-40.2-16.3-64.5c7-23.9,23.4-39.2,47.7-45.3c3.7-0.9,7.4-1.3,11.2-1.9c2,0,4.1,0,6.1,0c1,0.3,1.9,0.5,2.9,0.6
			c12.2,1.1,23.3,5.5,33.1,13c2.3,1.8,4.5,3.7,6.7,5.6c6.6-6.5,14-11.8,22.8-14.9c5.2-1.8,10.6-2.9,15.9-4.5
			C288.1,49.5,292.7,49.5,297.3,49.5z M245.4,234.2c0,0,0.3-0.1,0.5-0.4c27.5-27.9,55.3-55.5,82.4-83.6c17.3-17.9,18.3-45.9,3.6-66
			c-14.8-20-41.9-27-64.1-15.6c-6.4,3.2-11.8,8.5-17.4,13.1c-4.1,3.3-7.1,3.6-10.9,0c-1.8-1.7-3.4-3.4-5.1-5.1
			c-17.7-16.8-44.8-18.7-64.7-4.6c-26.3,18.7-29.8,56.2-7.1,79.6c17.2,17.7,34.6,35.2,52,52.8C224.7,214.2,235,224,245.4,234.2z"/>
		<path class="st1" d="M70.4,215c13.6,8.9,27.7,15.9,43.1,19.7c12.8,3.2,26.1,5.2,39.1,7.9c17.3,3.6,33.6,9.5,47.4,20.9
			c13,10.6,22.5,23.9,29,39.3c0.5,1.3,0.8,3.1,0.3,4.3c-6.5,21.2-10,42.9-10.3,65c0,0.4-0.1,0.6-0.4,1.5c-0.9-1.1-1.5-2-2.2-2.9
			c-18.7-27.6-42.6-50.1-69.1-70c-4.7-3.6-9.4-6.9-14.2-10.2c-4.2-2.9-8-2.7-10.3,0.6c-2.4,3.3-1.4,7,2.9,9.9
			c21.5,14.8,41.6,31.2,58.9,50.8c9.3,10.6,17.2,22.1,25.7,33.3c0.9,1.1,1.4,2.5,2.5,4.6c-7.6,0.6-14.5,1.5-21.4,1.7
			c-64.2,1.5-108.1-40.6-123-93.9c-7.4-26.2-7.5-52.4,0.5-78.6C69.3,217.8,69.7,216.6,70.4,215z"/>
		<path class="st1" d="M245.4,234.3c-10.4-10.2-20.7-19.8-30.8-29.9c-17.4-17.6-34.9-35.1-52-52.8c-22.6-23.3-19.2-60.9,7.1-79.6
			c19.8-14.1,46.9-12.2,64.7,4.6c1.8,1.7,3.4,3.4,5.1,5.1c3.8,3.7,6.9,3.4,10.9,0c5.6-4.7,11.1-9.9,17.4-13.1
			c22.4-11.3,49.5-4.3,64.1,15.6c14.8,20.1,13.7,48.2-3.6,66.1c-27.2,28.2-55,55.8-82.4,83.7C245.6,234.2,245.4,234.3,245.4,234.3z
			 M160.4,114.9c0.3,8.3,2.4,15.9,7.1,22.6c2.4,3.6,6.1,4.5,9.2,2.5c3.3-2,3.9-5.9,1.7-9.7c-7.4-12.2-6.6-22.9,2.4-34
			c2.9-3.6,2.8-7.1-0.1-9.8c-2.9-2.5-6.6-2-9.7,1.4C164,95.7,160.7,104.7,160.4,114.9z M200.9,75.3c-1.1,0.3-2.9,0.3-4.3,1
			c-2.7,1.3-4.3,3.7-3.3,6.5c0.8,2,2.5,4.5,4.6,5.3c2.4,1.1,5.5,1,8.1,1c3.6,0.1,6.2-2.5,6.6-6c0.3-3.3-1.9-6.2-5.2-6.9
			C205.3,75.7,203.3,75.6,200.9,75.3z"/>
		<path class="st3" d="M160.4,114.9c0.3-10.2,3.6-19.2,10.6-26.8c3.1-3.4,6.7-3.8,9.7-1.4c3.1,2.7,3.1,6.2,0.1,9.8
			c-9,11.1-9.8,21.6-2.4,34c2.3,3.8,1.7,7.6-1.7,9.7c-3.1,1.9-6.7,1-9.2-2.5C163,130.7,160.7,123.1,160.4,114.9z"/>
		<path class="st3" d="M200.9,75.3c2.4,0.3,4.5,0.5,6.5,0.9c3.3,0.6,5.5,3.7,5.2,6.9c-0.3,3.4-3.1,6.1-6.6,6c-2.8-0.1-5.7,0-8.1-1
			c-1.9-0.9-3.8-3.2-4.6-5.3c-0.9-2.7,0.6-5.2,3.3-6.5C197.9,75.6,199.7,75.6,200.9,75.3z"/>
	</g>
</g>
</svg>
