<?xml version="1.0" encoding="utf-8"?>
<!-- Generator: Adobe Illustrator 26.0.3, SVG Export Plug-In . SVG Version: 6.00 Build 0)  -->
<svg version="1.1" id="圖層_1" xmlns="http://www.w3.org/2000/svg" xmlns:xlink="http://www.w3.org/1999/xlink" x="0px" y="0px"
	 viewBox="0 0 251.6 104" style="enable-background:new 0 0 251.6 104;" xml:space="preserve">
<style type="text/css">
	.st0{fill:#544B3D;}
	.st1{fill:#544B3D;stroke:#544B3D;stroke-width:0.25;stroke-miterlimit:10;}
	.st2{fill:#544B3D;stroke:#544B3D;stroke-width:0.5;stroke-miterlimit:10;}
</style>
<g>
	<path class="st0" d="M18.5,55.3c1.2,1.9,2.4,3.6,4.1,4.9c3.1,2.2,6.6,2.7,10.1,3c3.7,0.3,7.4,0.9,10.7,2.9c2.1,1.2,3.7,3,4.4,5.5
		c-2.4-0.5-4.5-1-6.7-1.3c-0.9-0.1-2-0.5-2.4,0.6c-0.3,0.9,0.7,1.4,1.2,1.9c5.9,5,14.6,5,20.6-0.1c0.6-0.5,1.5-1.1,1.1-1.9
		c-0.4-0.9-1.4-0.7-2.3-0.5c-2.2,0.4-4.3,0.9-6.6,1.2c0.6-2.7,2.3-4.3,4.4-5.5c3.3-2,7-2.5,10.7-2.9c3.2-0.3,6.3-0.6,9.2-2.3
		c2.1-1.1,3.5-3,5-5.2c-0.2,12.3-16.1,24.6-31.1,24.9C35.6,80.7,19.5,68.3,18.5,55.3z"/>
	<polygon class="st0" points="50.4,16.1 50.4,16.3 50.4,16.1 18.5,46.6 26.4,46.6 26.4,46.6 26.4,59.1 31.2,59.1 31.2,41.9 
		50.4,23.2 69.6,41.9 69.6,59.1 74.3,59.1 74.3,46.6 74.4,46.6 82.2,46.6 	"/>
	<g>
		<path class="st0" d="M41.6,48.8h7.7v-7.6C45.3,41.8,42.2,44.9,41.6,48.8z"/>
		<path class="st0" d="M51.5,41.3v7.6h7.7C58.6,44.9,55.5,41.8,51.5,41.3z"/>
		<rect x="51.5" y="51.1" class="st0" width="7.7" height="7.8"/>
		<rect x="41.5" y="51.1" class="st0" width="7.7" height="7.8"/>
	</g>
</g>
<g>
	<g>
		<path class="st1" d="M105.2,58.2c0,0-0.1-0.2-0.1-0.5c-0.2-0.8-0.5-1.4-1-1.8s-1.3-0.7-2.4-1h-0.1c-0.3-0.1-0.5-0.1-0.6-0.1
			s-0.1-0.1-0.1-0.2c0-0.1,0.1-0.2,0.3-0.2c0.2,0,0.8,0,1.9,0.1c0.1,0,0.2,0,0.3,0c1.2,0.1,2,0.1,2.3,0.1c0.5,0,0.8-0.2,0.9-0.6
			c0.1-0.2,0.1-0.8,0.1-1.7c0-0.1,0-0.2,0-0.3c0-0.2,0-0.4,0-0.7c0-0.7,0-1.1-0.1-1.3c-0.1-0.3-0.4-0.4-0.9-0.5c-0.3,0-1.2,0-2.5,0
			c-0.6,0-1,0-1.4,0c-3.2,0-5.5,0.1-6.8,0.2c-0.1,0-0.2,0-0.3,0c-0.6,0.1-1,0.1-1.1,0.1s-0.2-0.2-0.4-0.4c0-0.1-0.1-0.2-0.1-0.2
			c-0.2-0.4-0.3-0.7-0.3-0.8s0.1-0.2,0.3-0.1c0.8,0.1,3.1,0.2,6.9,0.2s5.9,0,6.1-0.1c0.3-0.1,0.4-0.3,0.5-0.6s0.1-0.9,0-1.8
			c0,0,0-0.1,0-0.2c0-0.3,0-0.5,0.1-0.5s0.4,0,0.9,0.1c0.1,0,0.2,0,0.2,0c1.1,0.2,1.9,0.2,2.3,0.2s0.8-0.1,1.2-0.3
			c1.9-0.8,2.8-1.4,2.8-1.7c0-0.1-0.1-0.2-0.3-0.2c-0.3,0-0.9-0.1-2-0.1c-0.7,0-2.5,0-5.2,0c-3.4,0-5.5,0-6.5,0
			c-0.8,0-1.7,0.1-2.8,0.3c-0.1,0-0.2,0-0.3,0c-0.4,0-0.6,0-0.7,0s-0.2-0.3-0.4-0.6c0-0.1,0-0.1-0.1-0.1c-0.2-0.4-0.3-0.6-0.3-0.7
			c0-0.1,0.2-0.1,0.6,0c1.2,0.1,5.3,0.2,12.1,0.2c0.6,0,1.3,0,2.2,0c2.4,0,3.9,0,4.5,0c0.9,0,1.5-0.1,1.8-0.2
			c0.2-0.1,0.5-0.2,0.7-0.5c0.1-0.1,0.2-0.2,0.3-0.3c0.5-0.5,0.9-0.7,1.1-0.7s0.7,0.4,1.4,1.1c0.8,0.8,1.2,1.3,1.3,1.6
			c0.1,0.2-0.2,0.4-0.8,0.5c-0.2,0-0.8,0.2-1.7,0.5c-2,0.7-4.4,1.3-7.1,1.9c-0.9,0.2-1.4,0.3-1.6,0.5c-0.2,0.1-0.3,0.4-0.3,0.8
			c0,0.4,0,0.6,0.1,0.7c0.1,0.1,0.5,0.2,1.1,0.2c0.4,0,1.3,0,2.8,0c0.2,0,0.4,0,0.5,0c0.3,0,0.6,0,1,0c1.5,0,2.5-0.1,2.8-0.2
			c0.3-0.1,0.7-0.4,1-0.9c0.1-0.1,0.2-0.3,0.2-0.3l0.1-0.1c0.5-0.6,0.8-0.9,1-1s0.6,0.2,1.2,0.8h0.1c1.5,1.2,2.2,2,1.9,2.3
			c-0.1,0.2-0.5,0.3-1,0.3c-0.6,0-2.5,0-5.9,0.1c-0.6,0-1.3,0-2.3,0c-1.8,0-2.9,0-3.4,0.1c-0.7,0.1-1.1,0.3-1.2,0.6
			c-0.1,0.2-0.2,0.7-0.1,1.5c0,0.4,0,0.8,0,1c0,2.1-0.2,3.4-0.6,4.1c-0.4,0.6-1.3,1.1-2.8,1.4C105.7,58.3,105.3,58.3,105.2,58.2z
			 M93.7,31.4c0-0.1-0.1-0.2-0.1-0.2v-0.1c-0.2-0.4-0.3-0.7-0.3-0.8s0.2-0.1,0.6,0H94c1.3,0.1,3.6,0.2,6.9,0.2s5.1,0,5.3-0.1
			c0.3-0.1,0.4-0.4,0.5-1c0-0.5,0-1.4-0.1-2.6v-0.1c0-0.4,0-0.6,0.1-0.6s0.4,0,1,0.2c0.1,0,0.1,0,0.2,0c1.4,0.3,2.3,0.6,2.7,0.8
			c0.4,0.2,0.4,0.4,0.1,0.7c-0.2,0.2-0.4,0.4-0.5,0.6c-0.1,0.2-0.1,0.5-0.1,0.8v0.1c0,0.4,0,0.7,0.1,0.8c0.1,0.2,0.4,0.3,0.9,0.3
			c0.4,0,1.2,0,2.6,0c0.3,0,0.5,0,0.6,0c0.2,0,0.5,0,0.9,0c1.5,0,2.4-0.1,2.7-0.1c0.3-0.1,0.6-0.3,0.9-0.8c0.1-0.1,0.1-0.2,0.2-0.3
			c0-0.1,0.1-0.2,0.2-0.2c0.5-0.7,0.9-1.1,1-1.2c0.2,0,0.6,0.2,1.1,0.7c0.1,0.1,0.2,0.1,0.2,0.2c1.7,1.4,2.3,2.3,1.7,2.6
			c-0.1,0-1,0.1-2.8,0.2c-1.8,0.1-3.2,0.1-4.3,0.1h-0.3c-3,0-5.9,0-8.6,0c-4.5,0-7.3,0-8.4,0c-1.2,0-2.2,0.1-3.1,0.2
			c-0.1,0-0.2,0-0.3,0c-0.6,0.1-1,0.1-1.1,0.1C94,31.8,93.9,31.6,93.7,31.4z M99.2,41.3c-0.2,0-0.3-0.2-0.3-0.3c0-0.2,0-0.7,0-1.4
			c0.1-1.9,0.1-4.1-0.1-6.4c0,0,0-0.1,0-0.2c0-0.3,0-0.4,0.1-0.4s0.5,0.1,1.1,0.4c0.2,0.1,0.3,0.1,0.4,0.2c0.1,0,0.3,0.1,0.5,0.2
			c0.7,0.3,1.3,0.5,1.8,0.6c0.5,0,1.9,0.1,4.2,0.1c0.6,0,1,0,1.3,0c0.4,0,0.9,0,1.6,0c1.7,0,2.7,0,3.2,0c0.6,0,1.1-0.1,1.4-0.2
			c0.2-0.1,0.4-0.3,0.6-0.7c0.1-0.1,0.2-0.3,0.2-0.3c0.3-0.4,0.6-0.7,0.8-0.7c0.2,0,0.5,0.2,1,0.6c1,0.8,1.6,1.3,1.9,1.7
			c0.2,0.4,0.1,0.7-0.2,0.9c-0.4,0.2-0.6,0.4-0.7,0.7s-0.1,1-0.1,2.2c0,0.1,0,0.2,0,0.4c0,0.8,0,1.3-0.1,1.4
			c-0.1,0.2-0.3,0.3-0.6,0.5h-0.1c-0.7,0.3-1.3,0.4-1.7,0.4c-0.5,0-0.7-0.1-0.7-0.3c0-0.4-0.2-0.7-0.6-0.8c-0.2-0.1-2.1-0.1-5.7-0.1
			s-5.5,0-5.7,0.1c-0.1,0-0.3,0.1-0.4,0.2c-0.1,0.1-0.2,0.2-0.2,0.3c0,0.2-0.4,0.5-1.2,0.8C100.2,41.3,99.6,41.4,99.2,41.3z
			 M114.3,38.5c0.3-0.2,0.5-0.8,0.5-1.7s-0.2-1.5-0.5-1.7c-0.2-0.1-2.1-0.2-5.9-0.2c-3.7,0-5.7,0.1-5.9,0.2
			c-0.3,0.2-0.5,0.8-0.5,1.7s0.1,1.5,0.5,1.7c0.2,0.1,2.1,0.2,5.9,0.2C112.2,38.7,114.1,38.6,114.3,38.5z"/>
		<path class="st1" d="M138.2,58.1c-0.1-0.1-0.2-0.2-0.2-0.2c0-0.1,0-0.3,0-0.6c0.3-3.7,0.2-7.4-0.1-11.1c0-0.3,0-0.5,0.1-0.5
			s0.5,0.2,1.1,0.5h0.1c0.1,0.1,0.3,0.2,0.6,0.3c0.8,0.3,1.3,0.5,1.5,0.6s0.7,0.1,1.5,0.1c0.2,0,0.4,0,0.5,0s0.3,0,0.5,0
			c1.1,0,1.7-0.1,1.9-0.3s0.3-0.8,0.3-1.9c0-0.2,0-0.3,0-0.5c0-0.1,0-0.3,0-0.5c0-0.8,0-1.3-0.1-1.5c-0.1-0.3-0.3-0.5-0.6-0.6
			c-0.3,0-0.8-0.1-1.7,0c-0.2,0-0.4,0-0.5,0c-2,0-3.6,0.1-4.9,0.3c-0.6,0.1-0.9,0.1-0.9-0.1c0,0-0.1-0.1-0.2-0.1
			c-0.2,0-0.3,0.1-0.4,0.4c-0.1,0.2-0.2,0.7-0.3,1.5c-0.4,3-1,5.5-1.9,7.6s-2.2,4-3.7,5.7c-0.3,0.4-0.6,0.6-0.7,0.7
			c-0.2,0.1-0.3,0.1-0.4,0c0-0.1,0-0.2,0.1-0.5c1.1-2,2-4.2,2.6-6.7s1-5.4,1.2-8.7c0.1-1.5,0.1-4.1,0.1-7.8c0-3.5-0.1-5.8-0.2-6.8
			v-0.1c0-0.4,0-0.6,0.1-0.6s0.5,0.2,1.3,0.5c0.1,0,0.1,0,0.2,0.1c0.2,0.1,0.5,0.2,0.9,0.4c0.6,0.3,0.9,0.4,1,0.4
			c0.2,0.1,0.6,0.1,1.4,0.2c0.7,0,3.1,0,7.2,0.1c0.6,0,1.4,0,2.4,0c2.3,0,3.8,0,4.5,0c0.9,0,1.5-0.1,1.8-0.2
			c0.2-0.1,0.4-0.2,0.6-0.5c0.1-0.1,0.1-0.2,0.2-0.2c0.4-0.5,0.7-0.7,0.8-0.8c0.2,0,0.5,0.2,1.1,0.6c1.4,1,2.2,1.7,2.2,2
			c0,0-0.1,0.1-0.3,0.3c-0.2,0.1-0.3,0.2-0.4,0.2c0,0-0.1,0.1-0.3,0.2c-0.2,0.2-0.2,0.3-0.3,0.4c0,0.1-0.1,0.7-0.1,1.8
			s0,2.1,0.1,3.1c0,0.9,0,1.4-0.2,1.6c-0.2,0.2-0.6,0.4-1.4,0.6c-0.7,0.2-1.1,0.2-1.4,0.2c-0.2,0-0.3-0.2-0.3-0.6
			c0-0.4,0-0.7-0.1-0.8s-0.4-0.2-0.9-0.3c-0.3,0-1.2,0-2.5,0c-2.2,0-3.5,0.1-3.7,0.2c-0.3,0.1,0.3,0.4,1.6,0.9
			c0.6,0.2,1,0.4,1.1,0.6c0.1,0.2,0.1,0.3-0.2,0.5c-0.2,0.1-0.3,0.4-0.4,0.9c-0.1,0.5-0.1,1,0,1.3s0.3,0.5,0.6,0.6
			c0.3,0,1.1,0.1,2.6,0.1c0.2,0,0.4,0,0.7,0c1.2,0,1.9,0,2.1-0.1c0.2-0.1,0.5-0.4,0.9-0.8c0-0.1,0.1-0.2,0.1-0.2
			c0.4-0.6,0.7-1,0.9-1.1c0.3-0.2,0.5-0.2,0.9,0c0.2,0.1,0.7,0.6,1.5,1.2c0,0,0.1,0.1,0.2,0.1c0.7,0.7,1.1,1.1,1.1,1.3
			c0,0.3-0.3,0.4-1.1,0.5c-0.6,0-2,0.1-4.3,0.1c-0.1,0-0.2,0-0.3,0c-0.4,0-1,0-1.7,0c-1.6,0-2.5,0-2.9,0.1c-0.6,0.1-0.9,0.2-1.1,0.5
			c-0.1,0.2-0.1,0.6-0.1,1.3c0,0.3,0,0.6,0,0.8c0,0.1,0,0.2,0,0.4c0,1.1,0.1,1.8,0.2,1.9c0.2,0.2,0.7,0.3,1.7,0.3c0.2,0,0.3,0,0.3,0
			s0.1,0,0.2,0c0.9,0,1.5,0,1.7-0.1s0.6-0.4,1-1c0.4-0.5,0.8-0.8,1-0.7c0.3,0.1,0.9,0.5,1.9,1.4c0.6,0.6,0.9,0.9,1,1.1
			s-0.2,0.4-0.7,0.7c-0.2,0.1-0.3,0.3-0.4,0.5c-0.1,0.2-0.1,0.5-0.1,1.1c0,2.2,0.1,4.3,0.2,6.2c0,0.4-0.1,0.7-0.3,0.9
			c-0.2,0.2-0.7,0.4-1.4,0.6s-1.1,0.2-1.4,0.1c-0.2-0.1-0.4-0.4-0.4-0.9c0-0.1,0-0.2,0-0.2c0-0.4,0-0.6-0.1-0.7
			c-0.2-0.1-0.6-0.2-1.2-0.2c-0.5,0-1.6,0-3.5,0c-0.6,0-1,0-1.4,0c-0.1,0-0.3,0-0.6,0c-2.1,0-3.4,0-4,0c-0.8,0-1.3,0.1-1.5,0.2
			c-0.1,0.1-0.2,0.3-0.2,0.6v0.1c0,0.5-0.4,0.9-1.2,1.2C139.1,58.5,138.5,58.5,138.2,58.1z M145.5,35c5.4,0,8.1,0,8.3-0.1
			s0.4-0.3,0.4-0.6s0.1-1,0.1-2.2c0-0.3,0-0.6,0-1c0-0.7,0-1.1-0.1-1.3c-0.2-0.3-0.7-0.4-1.5-0.5c-0.6,0-2-0.1-4.1,0
			c-1.3,0-2.3,0-3.1,0c-0.7,0-1.7,0-3,0c-2.2,0-3.6,0-4.2,0c-0.8,0.1-1.3,0.2-1.5,0.5c-0.1,0.2-0.2,0.7-0.1,1.4c0,0.4,0,0.7,0,1
			c0,1.1,0.1,1.8,0.1,2s0.2,0.4,0.4,0.5C137.3,35,140.1,35,145.5,35z M145.5,40.8c0.4-0.3,0.4-1.6,0.2-3.7c-0.1-0.4-0.1-0.7,0-0.7
			c0.1-0.2,0-0.3-0.5-0.3s-1.8-0.1-3.9-0.1c-0.3,0-0.7,0-1.2,0c-1.3,0-2.2,0-2.5,0.1c-0.5,0.1-0.8,0.2-0.9,0.5
			c-0.1,0.2-0.1,0.6-0.1,1.4c0,0.3,0,0.5,0,0.7c0,1,0.1,1.5,0.1,1.7s0.2,0.3,0.5,0.4c0.4,0.1,1.8,0.2,4.3,0.2
			C144,41,145.4,40.9,145.5,40.8z M153.3,54.8c0.2-0.1,0.3-0.3,0.4-0.6c0-0.3,0.1-1.2,0.1-2.7c0-0.3,0-0.6,0-1.1
			c0-0.9,0-1.4-0.1-1.7s-0.5-0.5-1.1-0.6c-0.4-0.1-1.5-0.1-3.1-0.1c-0.8,0-1.5,0-2,0s-1.2,0-2,0c-1.6,0-2.6,0-3.1,0.1
			c-0.6,0.1-1,0.3-1.1,0.6c-0.1,0.2-0.1,0.8-0.1,1.7c0,0.5,0,0.8,0,1.1c0,1.5,0,2.4,0.1,2.7c0,0.3,0.2,0.5,0.4,0.6
			c0.1,0.1,2.1,0.2,5.9,0.2C151.2,54.9,153.1,54.9,153.3,54.8z"/>
		<path class="st1" d="M167.1,58.2c-0.8-0.3-1.1-0.8-1-1.5s0.7-1.4,1.6-1.8c1.3-0.7,2.3-1.7,3-3.1c0.3-0.5,0.5-1.1,0.6-1.7
			c0-0.2,0.1-0.3,0.3-0.2s0.2,0.2,0.3,0.5c0.3,1.3,0.2,2.7-0.2,4.1c-0.4,1.3-1,2.4-1.8,3.1C168.9,58.3,168,58.5,167.1,58.2z
			 M168.3,49.7c-0.1,0-0.2-0.1-0.3-0.1c-0.2,0-0.2-0.7-0.1-2.2c0.2-2.4,0.2-5.8,0.2-10.3c0-4.1-0.1-6.9-0.2-8.4
			c-0.1-0.6-0.1-1-0.1-1.1s0-0.2,0.1-0.2c0,0,0.5,0.2,1.5,0.6c0,0,0.1,0.1,0.2,0.1c0.8,0.3,1.3,0.5,1.6,0.6s0.8,0.1,1.5,0.1
			c0.2,0,0.3,0,0.4,0c0,0,0.1,0,0.2,0c0.9,0,1.4-0.1,1.6-0.1c0.2-0.1,0.5-0.3,0.8-0.8c0.1-0.1,0.1-0.1,0.1-0.2
			c0.3-0.4,0.5-0.7,0.7-0.7c0.2-0.1,0.4,0,0.7,0.2c0.2,0.1,0.7,0.5,1.4,1.2c0.5,0.5,0.8,0.9,0.8,1.2s-0.2,0.5-0.6,0.5
			c-0.1,0-0.3,0.2-0.5,0.6c-0.1,0.2-0.1,2.2-0.1,6.1c0,3.8,0.1,6.8,0.2,9c0,0.7,0.1,1.1,0.1,1.3c0,0.1-0.1,0.3-0.1,0.3
			c-0.2,0.2-0.6,0.4-1.1,0.6c-0.6,0.2-1,0.3-1.3,0.3s-0.5-0.1-0.6-0.2c-0.1-0.2-0.1-0.5-0.1-1c0-0.7,0-1.1-0.2-1.2
			c-0.2-0.1-0.8-0.2-1.9-0.2c-1.1,0-1.8,0.1-2,0.3s-0.2,0.9-0.1,2.1c0,0.5-0.3,0.9-1,1.3C169.5,49.8,168.9,49.9,168.3,49.7z
			 M172.9,36.7c0.2,0,0.3,0,0.4,0c0.8,0,1.2,0,1.4,0s0.3-0.1,0.4-0.2c0.2-0.1,0.3-0.3,0.4-0.7c0-0.3,0-1.2,0-2.7c0-0.1,0-0.3,0-0.6
			c0-1,0-1.7-0.1-1.9c-0.1-0.4-0.2-0.6-0.5-0.7c-0.2-0.1-0.6-0.1-1.3-0.1c-0.1,0-0.3,0-0.3,0c-0.1,0-0.2,0-0.3,0
			c-0.7,0-1.1,0-1.3,0.1c-0.3,0.1-0.4,0.3-0.5,0.7c0,0.3-0.1,0.9-0.1,1.9c0,0.2,0,0.4,0,0.6s0,0.3,0,0.6c0,1.1,0,1.8,0.1,2.1
			c0,0.4,0.2,0.7,0.5,0.8C171.8,36.6,172.2,36.7,172.9,36.7z M172.8,44.8c0.2,0,0.3,0,0.5,0c0.9,0,1.5,0,1.7-0.1
			c0.3-0.1,0.4-0.3,0.4-0.6s0.1-1.2,0.1-2.9c0-0.1,0-0.3,0-0.6c0-1.1,0-1.8-0.1-2.1c0-0.4-0.2-0.7-0.5-0.8c-0.2-0.1-0.6-0.1-1.2-0.1
			c-0.2,0-0.3,0-0.4,0c-0.1,0-0.2,0-0.4,0c-0.7,0-1.1,0-1.2,0.1c-0.3,0.1-0.4,0.3-0.5,0.8c0,0.3-0.1,1-0.1,2.1c0,0.3,0,0.5,0,0.6
			c0,0.2,0,0.4,0,0.8c0,1,0,1.7,0.1,2c0,0.4,0.2,0.6,0.4,0.7C171.8,44.7,172.2,44.8,172.8,44.8z M177.3,57.8
			c-0.3-0.2-0.5-0.3-0.6-0.5c-0.1-0.1-0.1-0.6-0.2-1.3c0-1.7-0.3-3.4-0.8-5.1c-0.2-0.5-0.2-0.8-0.1-0.9c0.1-0.1,0.4,0.1,0.9,0.4
			c2.1,1.5,3.1,3.2,3.1,5c0,0.9-0.2,1.5-0.7,2C178.5,58,177.9,58.1,177.3,57.8z M181.7,49.2c-0.2,0-0.4-0.2-0.4-0.3
			c0-0.2,0-0.7,0-1.5c0.1-1.2,0.1-2.7,0.1-4.5s-0.1-3-0.2-3.6c-0.1-0.7-0.5-0.8-1.3-0.5c-0.4,0.2-0.7,0.2-0.8,0.1
			c-0.1-0.1-0.1-0.2,0-0.3s0.3-0.3,0.6-0.6l0,0c1.4-1,2.5-2.3,3.4-3.7s1.3-2.9,1.3-4.2c0-0.5-0.3-0.9-0.9-1c-0.6-0.1-1.5,0-2.6,0.3
			c-0.2,0.1-0.5,0-0.7-0.1c-0.2-0.2-0.3-0.4-0.3-0.6c0-0.1,0-0.2-0.1-0.3c-0.1-0.2-0.2-0.3-0.1-0.4c0-0.1,0.2-0.1,0.5,0
			c1.3,0.1,3.7,0.2,7.2,0.2c0.3,0,0.6,0,1,0c1.9,0,3.1,0,3.5-0.1s0.7-0.2,1.1-0.6c0.1-0.1,0.2-0.2,0.2-0.2c0.4-0.4,0.8-0.6,1-0.6
			c0.3,0,0.8,0.4,1.5,1.1c0.5,0.4,0.8,0.8,0.9,1c0.1,0.2,0,0.4-0.3,0.5c-0.4,0.2-0.6,0.4-0.7,0.6c-0.1,0.2-0.2,0.7-0.3,1.6
			c-0.3,2.8-0.8,4.6-1.7,5.5c-0.3,0.3-0.5,0.6-0.5,0.8s0.3,0.5,0.7,0.8c0.9,0.8,1.4,1.3,1.5,1.5c0.1,0.3-0.1,0.5-0.5,0.8
			c-0.3,0.2-0.5,0.7-0.6,1.5s0,2.2,0.1,4.4c0,0.7,0,1.2-0.1,1.4s-0.6,0.4-1.3,0.6c-0.7,0.2-1.2,0.3-1.4,0.2c-0.2,0-0.3-0.3-0.3-0.6
			c0-0.4,0-0.6-0.1-0.7c-0.1-0.2-0.4-0.3-0.9-0.3c-0.4,0-1.2,0-2.4,0c-1.6,0-2.6,0-2.9,0.1c-0.4,0.1-0.5,0.3-0.5,0.7
			c0,0.2-0.3,0.5-1,0.7C182.6,49.2,182.1,49.3,181.7,49.2z M185.4,57.7c-0.2-0.1-0.4-0.2-0.5-0.3c-0.1-0.1-0.2-0.3-0.2-0.7
			c-0.4-1.8-1.2-3.6-2.4-5.5c-0.3-0.5-0.5-0.8-0.3-0.9c0.1-0.1,0.5,0.1,1.2,0.4c1.5,0.7,2.6,1.5,3.3,2.4c0.8,0.9,1.1,1.9,1.1,2.9
			c0,0.7-0.3,1.2-0.7,1.6C186.4,57.9,185.9,57.9,185.4,57.7z M190.8,39.3c0.5-0.3,0.7-0.6,0.6-0.8c0-0.3-0.3-0.5-0.8-0.5
			c-0.3,0-0.4-0.1-0.5-0.1c0,0-0.1-0.2-0.1-0.5c-0.1-0.6-0.3-1.1-0.7-1.4c-0.3-0.3-0.9-0.6-1.7-0.8c-0.5-0.1-0.7-0.2-0.8-0.4
			c0-0.1,0-0.2,0.2-0.2s0.7,0,1.5,0.1c1.4,0.1,2.3,0,2.7-0.2s0.6-0.9,0.9-2c0.2-1.2,0.3-1.9,0.3-2.3c0-0.5-0.2-0.8-0.5-0.9
			c-0.2-0.1-0.8-0.2-1.7-0.2c-0.1,0-0.2,0-0.3,0c-1,0-1.6,0.1-1.8,0.2c-0.2,0.1-0.4,0.5-0.6,1.2c0,0.1,0,0.1,0,0.2
			c-0.4,1.4-0.9,2.6-1.7,3.6c-0.7,1-1.7,2-2.9,2.8c-0.7,0.5-1,1-0.9,1.3c0.2,0.3,0.9,0.7,2.1,1c0.3,0.1,1.4,0.1,3.3,0.1
			C189.6,39.5,190.6,39.4,190.8,39.3z M186.9,46.3c0.3,0,0.6,0,0.8,0c1.9,0,2.9,0,3-0.1c0.2-0.1,0.3-0.3,0.4-0.6
			c0-0.3,0.1-1,0.1-2.2c0-0.2,0-0.4,0-0.7c0-0.8,0-1.4-0.1-1.6c-0.1-0.3-0.3-0.5-0.7-0.6c-0.3,0-0.9-0.1-1.8-0.1c-0.3,0-0.6,0-0.8,0
			s-0.4,0-0.8,0c-1,0-1.6,0-1.9,0.1c-0.4,0.1-0.6,0.3-0.7,0.6c-0.1,0.2-0.1,0.7-0.1,1.5c0,0.3,0,0.5,0,0.6c0,0.2,0,0.4,0,0.8
			c0,0.9,0,1.4,0.1,1.6c0.1,0.3,0.3,0.5,0.7,0.6C185.3,46.3,186,46.3,186.9,46.3z M193.9,58.1c-0.2-0.1-0.4-0.2-0.4-0.3
			c-0.1-0.1-0.2-0.4-0.3-0.8c-0.3-1-0.9-2.1-1.6-3.3c-0.8-1.2-1.6-2.3-2.5-3.4c-0.4-0.5-0.3-0.7,0.3-0.5s1.5,0.5,2.5,1.1
			c1.1,0.6,2,1.2,2.5,1.8c0.8,0.8,1.4,1.8,1.7,2.8c0.2,1,0.2,1.8-0.2,2.4C195.4,58.5,194.8,58.6,193.9,58.1z"/>
		<path class="st1" d="M202.7,34.3l-0.1-0.1c-0.1-0.3-0.3-0.5-0.3-0.7c-0.2-0.3-0.3-0.6-0.3-0.6c0-0.1,0.1-0.1,0.3-0.1
			c0.5,0.1,2.1,0.2,4.8,0.2c0.1,0,0.3,0,0.6,0c1.3,0,2.1,0,2.4-0.1c0.3-0.1,0.6-0.4,1-1c0.1-0.1,0.2-0.2,0.2-0.3
			c0.3-0.5,0.6-0.7,0.7-0.7c0.2,0,0.5,0.2,1.1,0.7c1.2,1,1.7,1.6,1.6,1.9c-0.1,0.2-0.3,0.3-0.7,0.3s-1.9,0.1-4.3,0.1
			c-3,0-4.8,0.1-5.4,0.2C203.2,34.3,202.7,34.4,202.7,34.3z M203.6,58.2c-0.2-0.1-0.3-0.5-0.2-1.1c0.1-1.3,0.2-3.2,0.1-5.8
			c0-2.6-0.1-4.5-0.3-5.7c0-0.2,0-0.3,0.1-0.3s0.6,0.2,1.3,0.5c0.9,0.4,1.5,0.6,1.8,0.7c0.3,0.1,0.8,0.1,1.5,0.1
			c0.8,0,1.3-0.1,1.5-0.2c0.2-0.1,0.6-0.5,1.1-1.1c0.3-0.4,0.6-0.5,0.8-0.4c0.3,0.1,0.8,0.5,1.6,1.3c0.6,0.5,0.8,0.9,0.9,1.1
			c0,0.2-0.2,0.4-0.6,0.6c-0.3,0.2-0.5,0.6-0.5,1.2c-0.1,0.6,0,2.1,0.1,4.4c0,0.1,0,0.2,0,0.4c0,1.1,0.1,1.7,0,1.9
			c0,0.2-0.2,0.4-0.5,0.5c-0.1,0-0.1,0-0.1,0.1c-1.6,0.8-2.4,0.7-2.4-0.3c0-0.5-0.1-0.8-0.3-0.9c-0.2-0.1-0.7-0.2-1.5-0.2
			c-0.9,0-1.4,0.1-1.5,0.2c-0.2,0.2-0.3,0.6-0.3,1.2c0,0.5,0,0.7,0,0.8c0,0.1-0.1,0.2-0.2,0.3c-0.3,0.3-0.7,0.5-1.3,0.6
			C204.2,58.3,203.8,58.3,203.6,58.2z M203.8,38.3c0-0.1-0.1-0.2-0.1-0.2s0-0.1-0.1-0.1c-0.2-0.4-0.3-0.6-0.2-0.7c0,0,0.3,0,0.8,0
			c0.1,0,0.1,0,0.1,0c1.8,0.2,3.1,0.2,3.8,0.2c0.7-0.1,1.2-0.3,1.5-0.7c0-0.1,0.1-0.2,0.2-0.2c0.5-0.6,0.8-0.9,0.9-0.9
			c0.3,0,0.8,0.3,1.5,1s1,1.2,1,1.4s-0.2,0.3-0.6,0.3c-0.3,0-1.5,0.1-3.3,0.1c-2.3,0-3.7,0.1-4.2,0.2c-0.1,0-0.2,0-0.3,0.1
			c-0.4,0.1-0.6,0.1-0.7,0.1C204,38.7,203.9,38.6,203.8,38.3z M203.6,42.5c-0.2-0.5-0.3-0.7-0.2-0.7h0.6c0.1,0,0.2,0,0.2,0
			c0.5,0,1.3,0.1,2.5,0.1s1.9,0,2.1,0c0.3-0.1,0.8-0.5,1.3-1.2c0.3-0.4,0.6-0.7,0.7-0.7c0.2,0,0.5,0.2,1,0.6
			c0.5,0.3,0.8,0.7,1.1,1.1c0.3,0.4,0.4,0.6,0.3,0.8c0,0.2-0.2,0.3-0.5,0.3s-1.1,0.1-2.5,0.1l0,0c-2.5,0-4.4,0.2-5.8,0.4
			c-0.2,0-0.3,0-0.4-0.1C204,43.2,203.8,42.9,203.6,42.5z M203.7,29.2c-0.2-0.4-0.3-0.7-0.2-0.7c0,0,0.2,0,0.6,0h0.1
			c1.7,0.2,3,0.2,3.7,0.1c0.8-0.1,1.4-0.5,1.8-1.1s0.8-0.9,1.1-0.8c0.3,0,0.8,0.5,1.6,1.2c0.6,0.6,0.9,0.9,0.9,1.1
			c0.1,0.2-0.1,0.4-0.6,0.5c-0.4,0.1-1.2,0.1-2.5,0.1c-2.4,0-4.1,0.1-5.1,0.3c-0.1,0-0.2,0-0.3,0.1c-0.2,0-0.2,0.1-0.3,0.1
			s-0.3,0-0.3-0.1C204,29.9,203.9,29.6,203.7,29.2z M207.8,54.1c0.1,0,0.2,0,0.3,0c0.8,0,1.3,0,1.4-0.1c0.2-0.1,0.3-0.3,0.4-0.6
			c0-0.3,0.1-1.1,0.1-2.6c0-0.1,0-0.3,0-0.5c0-1,0-1.7-0.1-2c0-0.4-0.2-0.6-0.4-0.7c-0.1-0.1-0.5-0.1-1.1-0.1c-0.1,0-0.2,0-0.3,0
			s-0.2,0-0.3,0c-0.6,0-0.9,0-1.1,0.1c-0.2,0.1-0.3,0.3-0.4,0.7c0,0.3-0.1,0.9-0.1,2c0,0.2,0,0.4,0,0.5s0,0.3,0,0.5c0,1,0,1.7,0.1,2
			c0,0.4,0.2,0.6,0.4,0.7C206.9,54,207.3,54.1,207.8,54.1z M212.7,58.2c-0.1-0.1-0.1-0.2,0-0.3c0.1-0.1,0.4-0.2,1-0.3
			c1.4-0.4,2.8-0.9,4.4-1.5c1.5-0.6,2.5-1.1,2.8-1.4c0.2-0.2,0.3-0.4,0.2-0.6c-0.1-0.2-0.4-0.5-0.9-1.1c-0.8-0.8-1.5-1.7-2.1-2.7
			c-0.3-0.5-0.7-0.9-1-1c-0.4-0.1-0.8-0.1-1.4,0.2c-0.3,0.1-0.5,0.1-0.6,0.1s-0.2-0.3-0.4-0.7v-0.1c-0.2-0.4-0.3-0.6-0.2-0.6
			c0-0.1,0.2-0.1,0.5-0.1l0,0c1,0,1.4-0.2,0.9-0.6c-0.2-0.2-0.3-0.6-0.2-1.2c0-0.6,0.1-1.7,0.1-3.2s0-2.5,0-3c0-0.6-0.2-0.8-0.5-0.8
			c-0.2,0.1-0.6,0.4-1.3,1c-0.3,0.3-0.6,0.5-0.7,0.5c-0.1,0-0.2,0-0.3-0.1s-0.1-0.2-0.1-0.2s0.1-0.2,0.2-0.4l0.1-0.1
			c1.2-1.9,2.4-4.3,3.5-7.2c0.2-0.6,0.3-0.9,0.4-1c0.1-0.1,0.2-0.1,0.3-0.1c0.4,0.1,0.6,0,0.7-0.5c0.1-0.4,0-0.8-0.4-0.9
			c-0.2-0.1-0.6-0.1-1.1-0.1c-0.6,0-1.1,0.1-1.5,0.2H215c-0.3,0.1-0.5,0.1-0.6,0.1s-0.2-0.2-0.3-0.5c0-0.1-0.1-0.1-0.1-0.2
			c0,0,0-0.1-0.1-0.2c-0.2-0.4-0.3-0.6-0.2-0.6c0-0.1,0.2-0.1,0.5-0.1c1.5,0.1,2.4,0.2,2.8,0.2c0.6,0,0.9-0.2,1-0.4s0.2-0.7,0.1-1.4
			c0-0.1,0-0.2,0-0.3c0-0.5,0-0.8,0.1-0.9c0.1-0.1,0.4,0,0.8,0.1c0.1,0,0.2,0,0.2,0.1c1.1,0.3,1.8,0.6,2.1,0.8s0.3,0.4,0.1,0.7
			c-0.5,0.4-0.5,0.7-0.2,1c0.3,0.2,0.9,0.4,1.9,0.4s1.5-0.1,1.7-0.2c0.2-0.2,0.2-0.7,0.2-1.6c0-0.1,0-0.2,0-0.3c0-0.5,0-0.8,0.1-0.9
			c0.1-0.1,0.4,0,0.8,0.1c0.1,0,0.2,0,0.2,0.1c1.1,0.3,1.8,0.6,2.2,0.8c0.3,0.2,0.4,0.4,0.1,0.6c-0.3,0.2-0.4,0.4-0.4,0.7
			s0.2,0.5,0.5,0.6c0.4,0.1,0.8-0.2,1.4-0.9c0.4-0.6,0.7-0.9,0.9-0.9s0.4,0.1,0.9,0.4c1.3,1,1.9,1.7,1.8,2c-0.1,0.3-1,0.5-2.7,0.5
			c-1.3,0-2.1,0.1-2.4,0.2c-0.3,0.1-0.4,0.4-0.4,0.8c0,0.3-0.2,0.5-0.7,0.7c-0.3,0.1-0.6,0.3-0.7,0.4c-0.1,0.2-0.1,0.3,0,0.4
			c0.3,0.1,0.2,0.3-0.3,0.6c-0.9,0.5-1.4,0.9-1.4,1.2c0,0.4,0.5,0.5,1.5,0.6c0.8,0,1.4,0,1.6-0.1c0.2-0.1,0.6-0.4,1-1
			c0.4-0.5,0.6-0.7,0.8-0.7c0.1,0,0.4,0.1,0.8,0.4c1.1,0.9,1.7,1.5,1.8,1.8c0.1,0.4-0.4,0.6-1.4,0.6c-0.6,0-1.1,0.1-1.4,0.1
			c-0.3,0-0.5,0-0.8,0c-0.3-0.1-0.9-0.1-1.7-0.1s-1.3,0-1.5,0.1c-0.3,0.2-0.4,0.5-0.4,1s0.2,0.8,0.5,1c0.4,0.2,0.8,0.3,1.3,0.1
			s0.9-0.5,1.4-1c0.4-0.4,0.6-0.7,0.8-0.7s0.5,0.2,1,0.6c0.9,0.7,1.4,1.3,1.4,1.6s-0.4,0.5-1.2,0.6c-0.6,0-1.6,0-3.1,0
			c-0.9,0-1.5,0-1.8,0.2c-0.2,0.1-0.4,0.5-0.4,1s0.1,0.8,0.3,0.9c0.2,0.2,0.5,0.2,1,0.2s0.8-0.1,1-0.2c0.2-0.1,0.5-0.4,0.9-0.9
			c0.4-0.4,0.7-0.6,1-0.6s0.7,0.4,1.4,1c0.4,0.4,0.7,0.7,0.8,1.1c0.1,0.3,0,0.5-0.3,0.5s-0.4,0.1-0.3,0.3c0.1,0.2,0.3,0.5,0.7,0.8
			c0.8,0.7,1.3,1.2,1.4,1.5c0.2,0.3,0.1,0.5-0.3,0.7c-0.1,0-0.6,0.1-1.6,0.1s-1.7,0.1-1.9,0c-0.3,0-2.1,0-5.2,0c-3.2,0-4.8,0-4.9,0
			c-0.1,0-0.2,0.1-0.4,0.2c-0.2,0.1-0.3,0.3-0.3,0.3c0,0.2-0.3,0.5-0.9,0.9c-0.4,0.3-0.6,0.5-0.5,0.6s0.6,0.2,1.5,0.2
			c0.7,0,2.2,0,4.3,0c0.3,0,0.7,0,1.2,0c1.7,0,2.7-0.1,3-0.1c0.4-0.1,0.7-0.3,1.1-0.6c0.1-0.1,0.2-0.2,0.2-0.2
			c0.5-0.4,0.8-0.6,1-0.6s0.7,0.4,1.4,1.1c0.6,0.6,1,1,1.1,1.4c0.1,0.3-0.1,0.5-0.5,0.5s-0.9,0.4-1.5,1.1c-0.6,0.7-1.3,1.4-2.2,2.2
			c-0.7,0.6-0.7,1-0.1,1.3c0.6,0.3,2.1,0.6,4.5,0.9c0.9,0.1,1.4,0.2,1.4,0.3c0,0.1-0.1,0.3-0.4,0.4c-0.3,0.2-0.6,0.4-1,0.8
			c-0.3,0.4-0.6,0.8-0.7,1.3c-0.1,0.3-0.2,0.4-0.3,0.4s-0.4,0-0.8-0.1c-0.1,0-0.2,0-0.2-0.1c-1.8-0.5-3.6-1.1-5.3-1.9
			c-0.6-0.3-1-0.5-1.3-0.5c-0.2,0-0.6,0.1-1.2,0.3c-2.4,0.9-5,1.7-7.7,2.1C213.4,58.2,212.8,58.3,212.7,58.2z M221.9,41.4
			c0.3-0.2,0.4-0.5,0.4-1.1c0-0.5-0.2-0.9-0.5-1c-0.2-0.1-0.6-0.2-1.5-0.2c-0.8,0-1.3,0.1-1.5,0.2c-0.3,0.2-0.5,0.5-0.5,1
			s0.1,0.9,0.4,1c0.1,0.1,0.6,0.2,1.5,0.2C221.3,41.6,221.8,41.5,221.9,41.4z M221.9,44.7c0.3-0.2,0.4-0.5,0.4-1.1
			c0-0.5-0.2-0.9-0.5-1.1c-0.2-0.1-0.6-0.2-1.5-0.2c-0.8,0-1.3,0.1-1.5,0.2c-0.3,0.2-0.5,0.5-0.5,1s0.1,0.9,0.4,1
			c0.1,0.1,0.6,0.1,1.5,0.1C221.2,44.9,221.8,44.8,221.9,44.7z M221.9,38.1c0.3-0.2,0.4-0.5,0.4-1s-0.1-0.8-0.4-1
			c-0.1-0.1-0.6-0.1-1.5-0.1s-1.4,0-1.5,0.1c-0.3,0.2-0.4,0.5-0.4,1s0.1,0.8,0.4,1c0.1,0.1,0.6,0.2,1.5,0.2
			C221.3,38.2,221.8,38.2,221.9,38.1z M223.8,52.5c0.4-0.2,0.9-0.7,1.6-1.4c0.7-0.8,1-1.3,1-1.5s0-0.3-0.1-0.3
			c-0.1-0.1-0.5-0.1-1-0.1c-0.4,0-1.2,0-2.6,0c-1.7,0-2.7,0-3,0s-0.5,0.1-0.6,0.1c-0.2,0.2-0.2,0.4,0.1,0.8c0.3,0.3,0.8,0.8,1.6,1.3
			C222.3,52.4,223.3,52.8,223.8,52.5z M221.8,34.9c0.3-0.1,0.4-0.3,0.5-0.6s0.2-0.8,0.3-1.5c0,0,0-0.1,0-0.2c0-0.5,0.1-0.7,0.2-0.8
			c0.1-0.1,0.3-0.1,0.6,0h0.1c0.5,0.1,0.9,0.1,1,0c0.2-0.1,0.3-0.3,0.3-0.6c0.1-0.5,0-0.8-0.2-1c-0.2-0.1-0.8-0.2-1.7-0.2
			s-1.4,0.1-1.7,0.2c-0.2,0.1-0.4,0.4-0.4,0.8c0,0.2,0,0.3-0.1,0.4c0,0.1-0.2,0.2-0.3,0.2c-0.3,0.2-0.5,0.3-0.6,0.5s0,0.3,0.2,0.5
			c0.4,0.2,0.3,0.4-0.2,0.6c-0.3,0.1-0.5,0.3-0.7,0.6s-0.2,0.6-0.1,0.7c0.1,0.2,0.5,0.3,1.2,0.3C221,35.1,221.5,35,221.8,34.9z
			 M228.6,44.8c0.3-0.1,0.6-0.5,1-1c0.4-0.6,0.5-0.9,0.4-1c-0.2-0.2-0.9-0.3-2.1-0.3c-1.2,0-2,0-2.2,0.2c-0.3,0.2-0.5,0.5-0.5,1.1
			c0,0.5,0.1,0.9,0.4,1.1c0.1,0.1,0.6,0.1,1.4,0.1C227.9,44.8,228.4,44.8,228.6,44.8z"/>
	</g>
	<g>
		<path class="st2" d="M94,74.8c0,0-0.1-0.1-0.1-0.2s0-0.2,0-0.2s0.1-0.1,0.2-0.1s0.2,0,0.4,0c0.4,0,0.6-0.1,0.7-0.2
			s0.2-0.4,0.3-0.9c0-0.3,0-1.1,0-2.4c0-0.6,0-1.1,0-1.4s0-0.6,0-1.1c0-1.4,0-2.2,0-2.6c0-0.5-0.1-0.8-0.2-1
			c-0.1-0.1-0.2-0.2-0.5-0.2c-0.1,0-0.2,0-0.2,0c-0.4,0-0.6-0.1-0.6-0.1s0-0.1,0-0.2s0-0.2,0-0.2s1.4,0,4,0s4,0,4,0s0,0.5,0.1,1.3
			c0,0.9,0,1.3,0,1.4c0,0-0.1,0.1-0.3,0.1c-0.2,0-0.3,0-0.3,0s-0.1-0.3-0.2-0.9l0,0c0-0.1,0-0.2-0.1-0.3c-0.1-0.3-0.1-0.6-0.2-0.7
			s-0.2-0.2-0.5-0.2c-0.2,0-0.6,0-1.2,0c-0.2,0-0.4,0-0.5,0c-0.2,0-0.4,0-0.6,0c-0.5,0-0.8,0-1,0c-0.2,0.1-0.3,0.2-0.4,0.4
			c0,0.2,0,0.5,0,1c0,0.3,0,0.6,0,0.7c0,0.2,0,0.3,0,0.6c0,0.6,0,1,0,1.1c0,0.2,0.1,0.4,0.2,0.4s0.3,0.1,0.6,0.1c0.1,0,0.3,0,0.3,0
			s0.1,0,0.2,0c0.4,0,0.7,0,0.8,0c0.2,0,0.3-0.1,0.3-0.2s0.1-0.3,0.1-0.6c0-0.1,0-0.1,0-0.2c0,0,0,0,0-0.1c0-0.3,0.1-0.4,0.1-0.5
			c0,0,0.1-0.1,0.3-0.1l0,0c0.1,0,0.1,0,0.2,0.1c0,0.1,0.1,0.2,0.1,0.5c0,0.2,0,0.6,0,1.3c0,0.1,0,0.3,0,0.5c0,0.5,0,0.9,0,1
			c0,0.2,0,0.3-0.1,0.4c0,0-0.1,0.1-0.1,0h-0.1c-0.1,0-0.2,0-0.3-0.1c0,0-0.1-0.2-0.1-0.5v-0.1c0,0,0-0.1,0-0.2
			c0-0.4-0.1-0.6-0.2-0.7s-0.4-0.1-1-0.1c-0.1,0-0.2,0-0.2,0c-0.1,0-0.2,0-0.4,0c-0.4,0-0.6,0-0.7,0c-0.1,0.1-0.2,0.2-0.2,0.4
			c0,0.2,0,0.5,0,1.1c0,0.3,0,0.5,0,0.7s0,0.5,0,0.8c0,0.6,0,0.9,0,1.1s0.2,0.3,0.4,0.4c0.1,0,0.5,0.1,1,0c0.3,0,0.5,0,0.7,0
			s0.4,0,0.6,0c0.6,0,1,0,1.2,0s0.4-0.1,0.5-0.2c0-0.1,0.1-0.3,0.2-0.7c0-0.1,0-0.3,0.1-0.4c0.1-0.5,0.1-0.8,0.2-0.9
			c0,0,0.1,0,0.3,0c0.2,0,0.3,0,0.3,0s0,0.5,0,1.4s-0.1,1.3-0.1,1.3s-1.4,0.1-4.1,0.1C95.4,74.9,94,74.8,94,74.8z"/>
		<path class="st2" d="M115.3,74.9c-0.2-0.3-1.3-1.7-3.1-4.3c-0.1-0.1-0.2-0.3-0.4-0.6c-1.1-1.5-1.7-2.4-2-2.8
			c-0.4-0.5-0.7-0.9-0.8-1c-0.1-0.1-0.2-0.1-0.2-0.1c-0.1,0-0.1,0.2-0.1,0.5s0,1.5,0,3.4c0,0.3,0,0.8,0,1.3c0,1,0,1.7,0,2
			c0,0.4,0.1,0.6,0.2,0.7s0.2,0.1,0.5,0.1c0.1,0,0.2,0,0.3,0h0.1c0.3,0,0.5,0.1,0.6,0.1s0.1,0.1,0.1,0.2c0,0,0,0,0,0.1s0,0.1,0,0.2
			c0,0-0.2,0-0.4,0.1c-0.1,0-0.5,0-1,0c-0.2,0-0.4,0-0.5,0s-0.3,0-0.5,0c-0.5,0-0.9,0-1,0c-0.2,0-0.3,0-0.4-0.1c0,0-0.1-0.1,0-0.2
			v-0.1c0,0,0,0,0-0.1s0-0.2,0.1-0.2c0,0,0.2,0,0.4-0.1c0.1,0,0.1,0,0.1,0c0.3,0,0.5-0.1,0.6-0.1s0.2-0.1,0.2-0.2s0.1-1.6,0.1-4.6
			s0-4.5-0.1-4.6s-0.3-0.2-0.7-0.3c-0.3,0-0.4-0.1-0.5-0.1c0,0-0.1-0.1-0.1-0.2s0.4-0.2,1.1-0.3s1.1-0.1,1.2,0c0,0,0.5,0.7,1.5,2.1
			c0.6,0.8,1,1.4,1.3,1.9c0.1,0.1,0.2,0.2,0.3,0.4c1,1.5,1.7,2.4,2,2.8c0.4,0.5,0.7,0.9,0.8,1c0.1,0.1,0.1,0.1,0.2,0l0,0
			c0-0.1,0-1.3,0-3.6c0-2.3,0-3.5,0-3.6s-0.1-0.2-0.2-0.2s-0.4-0.1-0.8-0.1h-0.1c-0.3,0-0.5-0.1-0.5-0.1s-0.1-0.1-0.1-0.2
			c0,0,0,0,0-0.1s0.3-0.2,1-0.2c0.6,0,1.2,0,1.8,0c0.7,0,1,0.1,1,0.3c0,0.1,0,0.2,0,0.2s-0.1,0-0.3,0c-0.1,0-0.2,0-0.3,0
			c-0.1,0-0.1,0-0.2,0c-0.2,0-0.3,0.1-0.4,0.2s-0.1,0.4-0.2,0.9c0,0.3,0,1.2,0,2.5c0,0.8,0,1.4,0,1.8c0,3.3,0,5-0.1,5
			c0,0-0.1,0.1-0.2,0C115.5,75,115.4,74.9,115.3,74.9z"/>
		<path class="st2" d="M121.5,77.4c0,0-0.1,0-0.3,0c-0.3,0-0.6-0.1-0.8-0.3c-0.2-0.2-0.2-0.4-0.1-0.6c0.1-0.3,0.4-0.4,0.7-0.4
			c0.4,0,0.7,0.1,1.1,0.3c0.3,0.2,0.5,0.3,0.6,0.2c0.1,0,0.3-0.2,0.4-0.4c0.1-0.2,0.2-0.5,0.3-0.7c0.1-0.3,0.1-0.7,0.1-1.3
			c0-0.5,0-1.5,0-3c0-0.5,0-1.3,0-2.6c0-0.8,0-1.3,0-1.6c0-0.2,0-0.4,0-0.6c0-0.6,0-1.1,0-1.2c0-0.2-0.1-0.4-0.2-0.5
			s-0.3-0.1-0.5-0.1c-0.1,0-0.2,0-0.3,0c-0.4,0-0.6-0.1-0.7-0.2s-0.1-0.2,0-0.4c0,0,0.8,0,2.3,0s2.2,0,2.3,0c0.1,0.1,0.1,0.2,0,0.3
			c-0.1,0.1-0.3,0.2-0.7,0.2c-0.1,0-0.2,0-0.3,0c-0.2,0-0.4,0.1-0.4,0.1c-0.1,0.1-0.1,0.4-0.2,0.8c0,0.3,0,1,0,2.2
			c0,0.7,0,1.2,0,1.6c0,0.1,0,0.1,0,0.2c0,2.1,0,3.3,0,3.8s0,0.9-0.1,1.3c-0.1,0.9-0.5,1.6-1.1,2.2
			C122.9,77.2,122.3,77.5,121.5,77.4z"/>
		<path class="st2" d="M135.4,75.1c0,0-0.1,0-0.2,0h-0.1c-0.9-0.1-1.8-0.4-2.5-1s-1.2-1.3-1.6-2.2c-0.4-0.9-0.5-2-0.4-3.1
			c0.2-1.5,0.7-2.8,1.7-3.7c0.9-0.8,1.9-1.3,3.1-1.3c1.2,0,2.2,0.3,3.1,1.1c1,0.9,1.6,2.1,1.8,3.6c0.2,1.2,0,2.3-0.4,3.4
			c-0.4,1-1,1.9-1.8,2.5C137.3,74.9,136.4,75.2,135.4,75.1z M136.3,74.3c0.8-0.2,1.5-0.8,2-1.8c0.4-0.9,0.7-1.9,0.7-3.1
			s-0.2-2.2-0.6-3.1c-0.5-1-1.1-1.6-2-1.8c-0.8-0.2-1.5-0.2-2.2,0.2c-0.7,0.3-1.2,0.9-1.5,1.8c-0.4,0.8-0.6,1.8-0.6,3
			c0,1.1,0.2,2.1,0.6,2.9c0.4,0.8,0.9,1.4,1.5,1.8C134.8,74.4,135.5,74.5,136.3,74.3z"/>
		<path class="st2" d="M148.8,74.9c-1.5,0-2.3,0-2.3-0.1c0,0,0-0.1,0-0.2s0-0.2,0-0.2s0.2,0,0.6-0.1c0.1,0,0.1,0,0.3,0
			c0.3,0,0.6-0.1,0.6-0.1c0.1-0.1,0.2-0.2,0.2-0.5c0-0.2,0-0.6,0-1.3c0-0.2,0-0.3,0-0.4s0-0.3,0-0.4c0-0.5,0-0.8-0.1-1.1
			c-0.1-0.3-0.5-1-1.1-2.3c-0.2-0.4-0.4-0.8-0.5-1c-0.1-0.1-0.2-0.3-0.3-0.5c-0.4-0.7-0.6-1.2-0.7-1.4c-0.2-0.3-0.3-0.4-0.4-0.5
			c-0.1-0.1-0.2-0.1-0.4-0.1c-0.1,0-0.1,0-0.2,0h-0.1c-0.2,0-0.3,0-0.3-0.1c0,0,0-0.1,0-0.2c0,0,0,0,0-0.1s0.4-0.2,1.1-0.2
			c0.7,0,1.4,0,2.1,0c0.7,0,1.1,0.1,1.1,0.2c0,0,0,0,0,0.1s0,0.2-0.1,0.2s-0.2,0-0.4,0.1c-0.1,0-0.1,0-0.2,0c-0.4,0-0.7,0.1-0.8,0.2
			s-0.1,0.2,0,0.5c0.3,0.7,0.7,1.6,1.3,2.7c0.5,1.1,0.8,1.6,0.9,1.6c0.1,0.1,0.1,0.1,0.2,0c0.1-0.1,0.2-0.2,0.3-0.5
			c0.1-0.2,0.4-0.7,0.7-1.6c0-0.1,0.1-0.1,0.1-0.2c0.1-0.1,0.1-0.3,0.3-0.5c0.4-0.8,0.6-1.2,0.7-1.4c0.1-0.3,0.1-0.5,0.1-0.6
			c-0.1-0.1-0.2-0.1-0.5-0.1c-0.1,0-0.2,0-0.2,0s-0.1,0-0.2,0c-0.2,0-0.4-0.1-0.4-0.1s-0.1-0.1-0.1-0.2c0,0,0,0,0-0.1s0.3-0.2,1-0.2
			c0.6,0,1.2,0,1.8,0s1,0.1,1,0.2c0,0,0,0,0,0.1s0,0.2-0.1,0.2s-0.2,0.1-0.4,0.1c-0.1,0-0.1,0-0.1,0c-0.1,0-0.1,0-0.2,0
			c-0.2,0-0.4,0.1-0.5,0.1c-0.1,0.1-0.2,0.3-0.4,0.6c-0.1,0.2-0.4,0.7-0.7,1.5c-0.2,0.4-0.3,0.7-0.4,0.9c-0.1,0.2-0.2,0.5-0.4,0.8
			c-0.5,1-0.8,1.7-0.9,1.9c-0.1,0.3-0.1,0.7-0.1,1.3c0,0.2,0,0.4,0,0.6c0,0.1,0,0.3,0,0.5c0,0.5,0,0.9,0,1c0,0.2,0.1,0.3,0.2,0.4
			c0.1,0,0.3,0.1,0.7,0.1c0.2,0,0.3,0,0.4,0c0.2,0,0.3,0.1,0.4,0.2c0.1,0.1,0.1,0.2,0,0.3C151.1,74.8,150.3,74.9,148.8,74.9z"/>
		<path class="st2" d="M164.6,74.8c0,0-0.1-0.1-0.1-0.2s0-0.2,0-0.2s0.1-0.1,0.2-0.1c0.1,0,0.2,0,0.4,0c0.4,0,0.6-0.1,0.7-0.2
			c0.1-0.1,0.2-0.4,0.3-0.9c0-0.3,0-1.1,0-2.4c0-0.6,0-1,0-1.4c0-0.3,0-0.6,0-1.1c0-1.4,0-2.2,0-2.6c0-0.5-0.1-0.8-0.2-1
			c-0.1-0.1-0.2-0.2-0.5-0.2c-0.1,0-0.2,0-0.2,0c-0.3,0-0.5-0.1-0.6-0.1s-0.1-0.1-0.1-0.2l0,0c0-0.1,0-0.1,0.1-0.1s0.2-0.1,0.5-0.1
			c0.2,0,0.6,0,1.3,0c0.2,0,0.3,0,0.4,0c0.8,0,1.3,0,1.5,0c0.3,0,0.5,0,0.6,0.1c0,0,0.1,0.1,0.1,0.2c0,0,0,0,0,0.1s0,0.2-0.1,0.2
			c0,0-0.2,0-0.4,0.1c-0.1,0-0.1,0-0.2,0c-0.4,0-0.7,0.1-0.8,0.2s-0.1,0.3-0.1,0.6c0,0.5,0,2,0,4.6s0,4,0.1,4.1l0,0
			c0,0.1,0.1,0.2,0.3,0.2c0.1,0,0.6,0,1.4,0c0.1,0,0.2,0,0.3,0s0.3,0,0.6,0c0.5,0,0.9,0,1,0c0.2,0,0.3-0.1,0.4-0.2
			c0.1-0.1,0.1-0.3,0.2-0.7c0-0.2,0.1-0.3,0.1-0.4s0.1-0.3,0.1-0.6l0.1-0.4c0,0,0.2-0.1,0.4-0.1s0.3,0,0.3,0c0,0.1,0,0.5,0,1.5
			c0,0.9-0.1,1.4-0.1,1.4s-1.3,0.1-3.9,0.1S164.7,74.8,164.6,74.8z"/>
		<path class="st2" d="M179.1,74.9c-1.4,0-2.1,0-2.2-0.1c0,0,0-0.1,0-0.2s0-0.2,0-0.2s0.2-0.1,0.5-0.1c0.1,0,0.2,0,0.3,0
			c0.3,0,0.5-0.1,0.6-0.2s0.2-0.4,0.2-0.9c0-0.4,0-1.2,0-2.5c0-0.5,0-0.9,0-1.2c0-0.3,0-0.6,0-1.1c0-1.4,0-2.2,0-2.6
			c0-0.5-0.1-0.8-0.2-1c-0.1-0.1-0.2-0.2-0.5-0.2c-0.1,0-0.2,0-0.2,0c-0.3,0-0.5-0.1-0.6-0.1s-0.1-0.1-0.1-0.2l0,0
			c0-0.1,0-0.1,0.1-0.1s0.2-0.1,0.5-0.1c0.2,0,0.6,0,1.3,0c0.2,0,0.3,0,0.4,0c0.8,0,1.3,0,1.5,0c0.3,0,0.5,0,0.6,0.1
			c0,0,0.1,0.1,0.1,0.2c0,0,0,0,0,0.1s0,0.2-0.1,0.2c0,0-0.2,0-0.4,0.1c-0.1,0-0.1,0-0.2,0c-0.4,0-0.7,0.1-0.8,0.2s-0.1,0.2-0.2,0.5
			c0,0.2,0,1.6,0,4.2s0,4,0,4.2c0,0.3,0.1,0.5,0.2,0.5c0.1,0.1,0.3,0.1,0.7,0.2c0,0,0.1,0,0.2,0c0.2,0,0.4,0.1,0.4,0.1
			s0.1,0.1,0.1,0.2c0,0,0,0,0,0.1s0,0.2,0,0.3C181.3,74.8,180.5,74.9,179.1,74.9z"/>
		<path class="st2" d="M190.7,75c-0.1,0-0.2,0-0.3,0c0,0,0,0,0-0.1c0,0-0.6-1.7-1.8-5s-1.8-5-1.8-5c-0.1-0.1-0.2-0.2-0.2-0.3
			c-0.1,0-0.3-0.1-0.6-0.1s-0.5-0.1-0.5-0.1c-0.1,0-0.1-0.1-0.1-0.2l0,0c0-0.1,0-0.1,0.1-0.1s0.2-0.1,0.5-0.1c0.2,0,0.6,0,1.3,0
			c0.2,0,0.3,0,0.4,0c0.8,0,1.3,0,1.5,0c0.3,0,0.5,0,0.5,0.1c0.1,0,0.1,0.1,0.1,0.2l0,0c0,0.1,0,0.2-0.1,0.2c0,0-0.2,0.1-0.5,0.1
			h-0.1c-0.4,0-0.6,0.1-0.7,0.1c-0.1,0-0.1,0.1-0.1,0.3c0,0.1,0.4,1.4,1.3,3.9c0.9,2.5,1.3,3.7,1.4,3.8l0,0c0.1,0.1,0.1,0.1,0.2,0
			c0.1-0.1,0.2-0.5,0.4-1.2c0.2-0.5,0.5-1.6,1.1-3.3c0.2-0.5,0.3-0.9,0.4-1.1c0-0.1,0.1-0.3,0.2-0.5c0.2-0.7,0.4-1.2,0.4-1.4
			c0.1-0.3,0-0.4,0-0.5c-0.1-0.1-0.2-0.1-0.5-0.1c-0.1,0-0.2,0-0.2,0c-0.3,0-0.4-0.1-0.5-0.1c0,0-0.1-0.1-0.1-0.3c0,0,0,0,0-0.1
			s0-0.2,0.2-0.2c0.1,0,0.5,0,1.2,0c0.2,0,0.4,0,0.5,0s0.2,0,0.3,0c0.6,0,0.9,0,1.1,0c0.2,0,0.3,0,0.4,0.1v0.1l0,0
			c0,0.1,0,0.2-0.1,0.2s-0.2,0.1-0.5,0.1s-0.5,0.1-0.7,0.1c-0.1,0.1-0.2,0.1-0.3,0.3v0.1c-0.6,1.7-1.1,3.3-1.7,4.9
			c-1.1,3.3-1.7,5-1.7,5C190.9,74.9,190.8,75,190.7,75z"/>
		<path class="st2" d="M202,74.9c-1.4,0-2.1,0-2.2-0.1c0,0,0-0.1,0-0.2s0-0.2,0-0.2s0.2-0.1,0.5-0.1c0.1,0,0.2,0,0.3,0
			c0.3,0,0.5-0.1,0.6-0.2s0.2-0.4,0.2-0.9c0-0.4,0-1.2,0-2.5c0-0.5,0-0.9,0-1.2c0-0.3,0-0.6,0-1.1c0-1.4,0-2.2,0-2.6
			c0-0.5-0.1-0.8-0.2-1c-0.1-0.1-0.2-0.2-0.5-0.2c-0.1,0-0.2,0-0.2,0c-0.3,0-0.5-0.1-0.6-0.1s-0.1-0.1-0.1-0.2l0,0
			c0-0.1,0-0.1,0.1-0.1s0.2-0.1,0.5-0.1c0.2,0,0.6,0,1.3,0c0.2,0,0.3,0,0.4,0c0.8,0,1.3,0,1.5,0c0.3,0,0.5,0,0.6,0.1
			c0,0,0.1,0.1,0.1,0.2c0,0,0,0,0,0.1s0,0.2-0.1,0.2s-0.2,0-0.4,0.1c-0.1,0-0.1,0-0.2,0c-0.4,0-0.7,0.1-0.8,0.2s-0.1,0.2-0.2,0.5
			c0,0.2,0,1.6,0,4.2s0,4,0,4.2c0,0.3,0.1,0.5,0.2,0.5c0.1,0.1,0.3,0.1,0.7,0.2c0,0,0.1,0,0.2,0c0.2,0,0.4,0.1,0.4,0.1
			s0.1,0.1,0.1,0.2c0,0,0,0,0,0.1s0,0.2,0,0.3C204.1,74.8,203.4,74.9,202,74.9z"/>
		<path class="st2" d="M217.4,74.9c-0.2-0.3-1.3-1.7-3.1-4.3c-0.1-0.1-0.2-0.3-0.4-0.6c-1.1-1.5-1.7-2.4-2-2.8
			c-0.4-0.5-0.7-0.9-0.8-1s-0.2-0.1-0.2-0.1c-0.1,0-0.1,0.2-0.1,0.5s0,1.5,0,3.4c0,0.3,0,0.8,0,1.3c0,1,0,1.7,0,2
			c0,0.4,0.1,0.6,0.2,0.7c0.1,0.1,0.2,0.1,0.5,0.1c0.1,0,0.2,0,0.3,0h0.1c0.3,0,0.5,0.1,0.6,0.1s0.1,0.1,0.1,0.2c0,0,0,0,0,0.1
			s0,0.1,0,0.2c-0.1,0-0.2,0-0.4,0.1c-0.1,0-0.5,0-1,0c-0.2,0-0.4,0-0.5,0s-0.3,0-0.5,0c-0.5,0-0.9,0-1,0c-0.2,0-0.3,0-0.4-0.1
			c0,0-0.1-0.1,0-0.2v-0.1c0,0,0,0,0-0.1s0-0.2,0.1-0.2c0,0,0.2,0,0.4-0.1c0.1,0,0.1,0,0.1,0c0.3,0,0.5-0.1,0.6-0.1s0.2-0.1,0.2-0.2
			s0.1-1.6,0.1-4.6s0-4.5-0.1-4.6s-0.3-0.2-0.7-0.3c-0.3,0-0.4-0.1-0.5-0.1c0,0-0.1-0.1-0.1-0.2s0.4-0.2,1.1-0.3
			c0.7-0.1,1.1-0.1,1.2,0c0,0,0.5,0.7,1.5,2.1c0.6,0.8,1,1.4,1.3,1.9c0.1,0.1,0.2,0.2,0.3,0.4c1,1.5,1.7,2.4,2,2.8
			c0.4,0.5,0.7,0.9,0.8,1s0.1,0.1,0.2,0l0,0c0-0.1,0-1.3,0-3.6c0-2.3,0-3.5,0-3.6s-0.1-0.2-0.2-0.2c-0.1,0-0.4-0.1-0.8-0.1
			c0,0-0.1,0-0.2,0c-0.3,0-0.5-0.1-0.5-0.1s-0.1-0.1-0.1-0.2c0,0,0,0,0-0.1s0.3-0.2,1-0.2c0.6,0,1.2,0,1.8,0c0.7,0,1,0.1,1,0.3
			c0,0.1,0,0.2,0,0.2s-0.1,0-0.3,0c-0.1,0-0.2,0-0.3,0s-0.1,0-0.2,0c-0.2,0-0.3,0.1-0.4,0.2c-0.1,0.1-0.1,0.4-0.1,0.9
			c0,0.3,0,1.2,0,2.5c0,0.8,0,1.4,0,1.8c0,3.3,0,5-0.1,5c0,0-0.1,0.1-0.2,0S217.4,74.9,217.4,74.9z"/>
		<path class="st2" d="M228.5,75c-1.5-0.1-2.7-0.7-3.6-1.8c-0.8-1-1.3-2.2-1.4-3.6c-0.1-1.4,0.2-2.6,0.9-3.7
			c0.8-1.2,1.9-1.9,3.4-2.2c0.7-0.1,1.4-0.2,2.1-0.1c0.7,0.1,1.4,0.3,2,0.6c0,0,0,0,0.1,0c0.1,0.1,0.2,0.1,0.2,0.2s0,0.4,0.1,0.8
			c0,0.1,0,0.2,0,0.3c0,0.1,0,0.2,0,0.3c0,0.4,0,0.7,0,0.7c0,0.1-0.1,0.1-0.3,0.1h-0.1h-0.1c-0.2,0-0.3,0-0.3-0.1s-0.1-0.3-0.1-0.6
			c0-0.1,0-0.1,0-0.2c-0.1-0.6-0.2-1-0.4-1.2s-0.5-0.3-1.1-0.4c-1-0.2-2,0-2.8,0.5s-1.4,1.2-1.8,2.2c-0.4,1-0.5,2.2-0.3,3.4
			c0.2,1.5,0.8,2.6,1.9,3.2c1,0.7,2.2,0.8,3.6,0.5l0,0c0.3-0.1,0.4-0.1,0.5-0.2s0.1-0.3,0.2-0.7c0-0.3,0-0.8,0-1.8
			c0-0.1,0-0.1,0-0.2v-0.1c0-0.5-0.1-0.7-0.1-0.8c-0.1-0.1-0.3-0.1-0.8-0.2h-0.1c0,0,0,0-0.1,0c-0.3,0-0.5-0.1-0.6-0.1
			s-0.1-0.1-0.1-0.2l0,0c0-0.1,0.4-0.2,1.1-0.2c0.7,0,1.3,0,2,0c0.7,0.1,1.1,0.1,1.1,0.2s0,0.2,0,0.2s-0.1,0-0.3,0.1c0,0,0,0-0.1,0
			c-0.2,0-0.4,0.1-0.4,0.1c-0.1,0.1-0.1,0.3-0.2,0.5c0,0.2,0,0.7,0,1.4c0,0.1,0,0.2,0,0.2c0,0.8,0,1.3,0,1.5c0,0.1-0.1,0.2-0.2,0.3
			C231.1,74.9,229.8,75.1,228.5,75z"/>
	</g>
</g>
</svg>
