<?xml version="1.0" encoding="utf-8"?>
<!-- Generator: Adobe Illustrator 26.0.3, SVG Export Plug-In . SVG Version: 6.00 Build 0)  -->
<svg version="1.1" id="圖層_1" xmlns="http://www.w3.org/2000/svg" xmlns:xlink="http://www.w3.org/1999/xlink" x="0px" y="0px"
	 viewBox="0 0 489 489" style="enable-background:new 0 0 489 489;" xml:space="preserve">
<style type="text/css">
	.st0{fill:none;}
	.st1{fill:#F97D5B;}
	.st2{fill:#F1A479;}
</style>
<g id="圖層_1_00000026851905920301875650000000464688063417688247_">
</g>
<g>
	<path class="st0" d="M456.3,286.1c0,57.8,0,115.5,0,173.4c-141.2,0-282.4,0-423.7,0c0-141.2,0-282.5,0-423.7
		c53.1,0,106.3,0,159.3,0c-4,0.7-8.2,1.1-12.2,2.1c-26.4,6.6-44.2,23.2-51.8,49.2c-7.7,26.4-1.2,50,17.7,70.1
		c5.7,6.1,11.6,11.7,17.4,17.6c25,25.2,50,50.4,75,75.6c5.1,5.1,8.4,5.1,13.5,0c2.8-2.8,5.4-5.5,8.2-8.2
		c28.9-29.3,58.3-58,86.5-87.9C380.5,118.2,365,56.6,318.1,40c-5.3-1.8-10.8-2.8-16.3-4.1c51.6,0,103,0,154.5,0
		c0,74.4,0,148.7,0,223.1c-0.3-1.7-0.7-3.2-0.8-4.8c-1.7-17.4-5.7-34.1-12.3-50.3c-1.8-4.6-4.8-6.5-8.4-5.4
		c-2.1,0.7-3.9,1.9-5.7,3.2c-21.6,15.2-45.3,25.2-71.2,30.3c-18.1,3.6-36.5,6.9-54.2,12.4c-27.9,8.8-51,25.2-66.5,50.7
		c-0.3,0.4-0.7,0.7-1.2,1.1c-7.2-13.4-16-25.3-27.2-35.2c-17.3-15.3-37.9-23.6-60.1-28.3c-12.2-2.5-24.5-4.3-36.5-7
		c-19.9-4.6-38.1-13-54.9-24.9c-5.7-4-10.1-2.8-12.7,3.6c-1.1,2.5-2.1,5.1-2.9,7.7c-13.3,40.2-10.9,79.7,5.4,118.4
		c15.2,35.8,39.7,63.3,75.7,79.1c32.8,14.4,66.9,15.3,101.4,7.2c4.7-1.1,6.4-3.5,6.4-8.7c0.1-23.8,1.2-47.5,5.8-71
		c6.4-32.6,24-56.5,53.5-71.7c17.6-9.1,36.5-13.8,55.8-16.9c24-3.9,47.4-10,69-21.6c6.1-3.3,11.9-6.9,17.8-10.4
		c0.3,0.3,0.4,0.4,0.6,0.7c0.4,1,0.7,2.1,1.1,3.2c10.2,32.8,10.6,65.8,2.3,99c-10.6,42.2-33,76.6-70.1,100.3
		c-25,16.2-52.8,23.6-82.2,25.2c-8.2,0.4-16.3,0-25.4,0c3.9-6.9,7-13,10.6-19.1c24-40.2,55.4-73.5,94-99.9c4.7-3.2,5.8-7.2,3.3-10.8
		c-2.5-3.7-6.6-4.1-11.2-1c-29.9,20.6-56,44.9-78.1,73.7c-13.8,18.1-26,37.2-34.7,58.3c-1,2.3-1.1,5.4-0.3,7.7c1.1,3.5,4.7,3.7,8,4
		c16,1.4,31.9,1.2,47.8-0.8c23.5-3,46.3-8.6,67-20.5c49.8-28.5,76.4-72.8,87.5-127.8C454.6,301.5,455.2,293.7,456.3,286.1z"/>
	<path class="st1" d="M456.3,286.1c-1.1,7.6-1.8,15.2-3.3,22.8c-11.1,55-37.7,99.4-87.5,127.8c-20.7,11.9-43.5,17.4-67,20.5
		c-15.9,2.1-31.8,2.2-47.8,0.8c-3.2-0.3-6.8-0.6-8-4c-0.8-2.3-0.7-5.5,0.3-7.7c8.7-21.1,20.7-40.4,34.7-58.3
		c22.1-28.7,48.2-53.1,78.1-73.7c4.6-3.2,8.7-2.8,11.2,1c2.5,3.6,1.4,7.6-3.3,10.8c-38.7,26.4-70.1,59.7-94,99.9
		c-3.6,5.9-6.8,12.2-10.6,19.1c9,0,17.3,0.4,25.4,0c29.4-1.5,57.2-9.1,82.2-25.2c37-23.9,59.3-58.2,70.1-100.3
		c8.4-33.2,8-66.2-2.3-99c-0.3-1.1-0.7-2.1-1.1-3.2c-0.1-0.3-0.3-0.4-0.6-0.7c-5.9,3.5-11.7,7-17.8,10.4
		c-21.6,11.7-44.8,17.8-69,21.6c-19.3,3-38.3,7.9-55.8,16.9c-29.4,15.2-47.1,39.1-53.5,71.7c-4.6,23.5-5.7,47.3-5.8,71
		c0,5.3-1.7,7.6-6.4,8.7c-34.6,8.2-68.7,7.2-101.4-7.2c-36.1-15.8-60.7-43.3-75.7-79.1c-16.3-38.7-18.8-78.2-5.4-118.4
		c0.8-2.6,1.9-5.1,2.9-7.7c2.6-6.4,6.9-7.6,12.7-3.6c16.7,11.7,35,20.3,54.9,24.9c12,2.8,24.3,4.4,36.5,7
		c22.3,4.7,42.8,13,60.1,28.3c11.2,10,20,21.8,27.2,35.2c0.6-0.4,1-0.7,1.2-1.1c15.6-25.6,38.6-41.9,66.5-50.7
		c17.7-5.5,35.9-8.8,54.2-12.4c25.8-5.3,49.6-15.1,71.2-30.3c1.8-1.2,3.6-2.6,5.7-3.2c3.6-1.1,6.6,0.8,8.4,5.4
		c6.6,16.2,10.5,32.9,12.3,50.3c0.1,1.7,0.6,3.2,0.8,4.8C456.3,268,456.3,277,456.3,286.1z M55.3,215.7c-0.6,1.8-1.1,3-1.5,4.3
		c-8.7,28.5-8.6,56.9-0.6,85.4c16.3,57.9,64,103.8,133.6,102c7.5-0.1,14.9-1.2,23.2-1.8c-1.2-2.2-1.8-3.7-2.8-5
		c-9.3-12.2-18-24.7-27.9-36.2c-18.7-21.3-40.6-39.1-64-55.1c-4.7-3.2-5.7-7.2-3.2-10.8s6.6-3.9,11.2-0.7
		c5.3,3.6,10.4,7.2,15.5,11.1c28.7,21.7,54.7,46,75,76c0.7,1,1.4,1.9,2.3,3.2c0.1-0.8,0.4-1.2,0.4-1.7c0.3-24,4-47.7,11.2-70.6
		c0.4-1.4,0.3-3.3-0.3-4.7c-7-16.7-17.3-31.2-31.5-42.7c-15.1-12.3-32.9-18.7-51.6-22.7c-14.1-2.9-28.5-5.1-42.4-8.6
		C85.4,232.9,70.1,225.5,55.3,215.7z"/>
	<path class="st2" d="M301.8,35.8c5.4,1.4,11.1,2.2,16.3,4.1c46.9,16.4,62.5,78.2,28.2,114.3c-28.3,29.9-57.6,58.7-86.5,87.9
		c-2.8,2.8-5.4,5.5-8.2,8.2c-5.1,5.1-8.4,5.3-13.5,0c-25-25.2-50-50.4-75-75.6c-5.8-5.8-11.7-11.6-17.4-17.6
		c-18.8-20-25.3-43.7-17.7-70.1c7.6-26,25.4-42.6,51.8-49.2c4-1,8-1.4,12.2-2.1c2.2,0,4.4,0,6.6,0c1.1,0.3,2.1,0.6,3.2,0.7
		c13.3,1.2,25.3,5.9,35.9,14.1c2.5,1.9,4.8,4,7.3,6.1c7.2-7,15.2-12.9,24.7-16.2c5.7-1.9,11.5-3.2,17.3-4.8
		C291.9,35.8,296.9,35.8,301.8,35.8z M245.4,236.5c0,0,0.3-0.1,0.6-0.4c29.9-30.3,60.1-60.3,89.6-90.8c18.8-19.5,19.9-49.9,3.9-71.7
		c-16-21.7-45.5-29.3-69.7-17c-6.9,3.5-12.9,9.3-18.9,14.2c-4.4,3.6-7.7,3.9-11.9,0c-1.9-1.8-3.7-3.7-5.5-5.5
		c-19.2-18.2-48.6-20.3-70.3-5c-28.6,20.3-32.3,61.1-7.7,86.5c18.7,19.2,37.6,38.3,56.5,57.4C222.9,214.8,234.1,225.5,245.4,236.5z"
		/>
	<path class="st0" d="M55.3,215.7c14.8,9.7,30.1,17.3,46.9,21.4c14,3.5,28.3,5.7,42.4,8.6c18.8,3.9,36.5,10.4,51.6,22.7
		c14.1,11.5,24.5,26,31.5,42.7c0.6,1.4,0.8,3.3,0.3,4.7c-7,23.1-10.9,46.6-11.2,70.6c0,0.4-0.1,0.7-0.4,1.7c-1-1.2-1.7-2.2-2.3-3.2
		c-20.3-30-46.3-54.5-75-76c-5.1-3.9-10.2-7.5-15.5-11.1c-4.6-3.2-8.7-2.9-11.2,0.7c-2.6,3.6-1.5,7.6,3.2,10.8
		c23.4,16,45.2,33.9,64,55.1c10.1,11.5,18.7,24,27.9,36.2c1,1.2,1.5,2.8,2.8,5c-8.3,0.7-15.8,1.7-23.2,1.8
		c-69.8,1.7-117.5-44.1-133.6-102c-8-28.5-8.2-56.9,0.6-85.4C54.2,218.7,54.6,217.4,55.3,215.7z"/>
	<path class="st0" d="M245.4,236.7c-11.3-11.1-22.5-21.6-33.4-32.5c-18.9-19.1-37.9-38.1-56.5-57.4c-24.6-25.3-20.9-66.2,7.7-86.5
		c21.6-15.3,51-13.3,70.3,5c1.9,1.8,3.7,3.7,5.5,5.5c4.1,4,7.5,3.7,11.9,0c6.1-5.1,12-10.8,18.9-14.2c24.3-12.3,53.8-4.7,69.7,17
		c16,21.8,14.9,52.4-3.9,71.9c-29.6,30.7-59.7,60.7-89.6,90.9C245.7,236.5,245.4,236.7,245.4,236.7z M153.1,106.9
		c0.3,9,2.6,17.3,7.7,24.6c2.6,3.9,6.6,4.8,10,2.8c3.6-2.2,4.3-6.4,1.8-10.5c-8-13.3-7.2-24.9,2.6-36.9c3.2-3.9,3-7.7-0.1-10.6
		c-3.2-2.8-7.2-2.2-10.5,1.5C157,86,153.4,95.8,153.1,106.9z M197.1,63.9c-1.2,0.3-3.2,0.3-4.7,1.1c-2.9,1.4-4.7,4-3.6,7
		c0.8,2.2,2.8,4.8,5,5.8c2.6,1.2,5.9,1.1,8.8,1.1c3.9,0.1,6.8-2.8,7.2-6.5c0.3-3.6-2.1-6.8-5.7-7.5
		C201.9,64.3,199.7,64.2,197.1,63.9z"/>
	<path class="st2" d="M153.1,106.9c0.3-11.1,3.9-20.9,11.5-29.2c3.3-3.7,7.3-4.1,10.5-1.5c3.3,2.9,3.3,6.8,0.1,10.6
		c-9.8,12-10.6,23.5-2.6,36.9c2.5,4.1,1.8,8.3-1.8,10.5c-3.3,2.1-7.3,1.1-10-2.8C155.9,124,153.4,115.9,153.1,106.9z"/>
	<path class="st2" d="M197.1,63.9c2.6,0.3,4.8,0.6,7,1c3.6,0.7,5.9,4,5.7,7.5c-0.3,3.7-3.3,6.6-7.2,6.5c-3-0.1-6.2,0-8.8-1.1
		c-2.1-1-4.1-3.5-5-5.8c-1-2.9,0.7-5.7,3.6-7C193.9,64.2,195.8,64.2,197.1,63.9z"/>
</g>
</svg>
