<?xml version="1.0" encoding="utf-8"?>
<!-- Generator: Adobe Illustrator 26.0.3, SVG Export Plug-In . SVG Version: 6.00 Build 0)  -->
<svg version="1.1" id="圖層_1" xmlns="http://www.w3.org/2000/svg" xmlns:xlink="http://www.w3.org/1999/xlink" x="0px" y="0px"
	 viewBox="0 0 489 489" style="enable-background:new 0 0 489 489;" xml:space="preserve">
<style type="text/css">
	.st0{fill:none;}
	.st1{fill:#F97D5B;}
	.st2{fill:#F1A479;}
	.st3{display:none;}
	.st4{display:inline;fill:none;}
	.st5{display:inline;fill:#F97D5B;}
	.st6{display:inline;fill:#F1A479;}
</style>
<g id="圖層_1_00000166635347741515829290000015137831416651611566_">
</g>
<g>
	<path class="st0" d="M478.5,411.9c0,22.2,0,44.4,0,66.6c-156,0-312,0-468,0c0-156,0-312,0-468c156,0,312,0,468,0
		c0,112.5,0,225,0,337.5c-0.2-0.3-0.7-0.7-0.7-1.1c-2.9-12-10.6-19.1-22.3-22.3c-7.5-2.2-15.2-4.2-22.7-6.6c-1.9-0.6-5-2.3-5-3.4
		c-0.1-3.8-2.3-8.2,1.8-11.4c13.9-11,20.1-25.5,19.7-43c-0.1-6.2,0.3-12,3.5-17.5c1.6-3,2.9-6.6,3-9.9c0.6-14.3,0.8-28.6,0.8-42.8
		c0-4.2-3-6.6-7.8-6.6c-23.2,0.1-46.5-0.5-69.7,0.7c-27.9,1.4-46.6,33.5-34.7,58.7c2.6,5.6,3.8,11,3.7,17
		c-0.3,17.5,6.3,31.9,19.8,43.2c0.9,0.8,1.8,2.1,2.1,3.2c1.4,9.1,0.7,10.2-8.3,12.8c-2.1,0.6-4.1,1-6.1,1.8c-3.4,1.4-6.6,1-10.1-0.3
		c-7.9-3.1-16-5.8-23.9-8.8c-5.3-1.9-11.4-2.5-13.1-9.4c-0.1-0.3-0.6-0.8-0.9-1c-10.3-7.4-13.3-17.7-11.4-29.8
		c0.1-0.5-0.1-0.9,0-1.4c0.8-1.9,1.4-4.1,2.6-5.8c5.7-7.8,12.6-14.9,17.5-23.2c8.1-13.7,9.7-29.2,9.1-44.9
		c-0.2-5.8,0.6-11.3,2.7-16.9c2.2-5.7,3.8-12,3.9-18.2c0.6-26.6,0.6-53.2,0.7-79.8c0-5.3-2.7-7.9-8-7.9c-34.8,0-69.7-0.7-104.4,0.3
		c-25.3,0.8-44.1,13.7-55.3,36.4c-10.1,20.3-8.7,42-3.9,63.3c2.2,9.5,4.5,18.6,4.5,28.5c-0.1,19.8,5.3,38.4,19,52.8
		c8.5,8.8,11.5,17.7,10.2,29c0,0.5,0.1,0.9,0,1.4c-0.8,2.2-1.3,4.7-2.6,6.4c-3.4,4.2-8,7.8-10.6,12.3c-1.8,3.2-3.8,4.6-6.9,5.7
		c-13.7,5-27.4,9.8-40.9,15.4c-4.2,1.8-6.9,1.6-10.2-1.4c9-4.2,16.8-9.5,23-17.1c3-3.7,3.8-7.3,1.9-11.8c-1.3-2.9-2.2-6.1-2.5-9.1
		c-1.1-10.3-1.7-20.6-2.9-30.8c-1-9.9-1.1-20.2-3.9-29.7c-7.9-28-33.7-44.7-62.3-41.5c-23.2,2.6-43.8,21.6-48.6,46.3
		c-2.2,10.7-1.8,22.1-3,33c-1,9.9-1.6,20.1-4.3,29.6c-2.1,6.9-1.5,11.7,3.4,16.3c2.1,1.9,4,4.2,6.4,5.8c4.6,3.2,9.5,6.2,14.6,9.5
		c-5.7,2.9-11.3,5.6-16.8,8.5c-11.2,5.7-16.8,15-16.8,27.5c0,12.1,0,24.3,0,36.4c0,4.2-0.1,8.6,0.1,12.8c0.2,4,3.2,6.7,6.7,6.7
		s6.4-2.7,6.9-6.7c0.1-1.3,0.1-2.4,0.1-3.7c0-15.1,0.1-30,0-45.1c0-7.4,3.1-12.8,9.8-16.1c6.2-3,12.3-5.9,18.3-9.3
		c2.5-1.4,4-0.8,5.8,1c3.3,3.1,6.6,6.4,10.4,8.8c12.2,7.5,25.4,5,37.5-6.5c5.5-5.3,5.5-5.3,10.9-1.4c-1.4,7.7-3.5,14.6-3.8,21.7
		c-0.6,15.8-0.2,31.6-0.1,47.4c0,1.6,0.1,3.3,0.6,4.9c0.9,3.4,3.4,5.1,6.9,4.8c3.3-0.2,5.6-2.3,6.2-5.7c0.2-1.5,0.2-3.1,0.2-4.6
		c0-15.8,0-31.6,0-47.4c0-9.6,3.5-17.7,12.6-21.5c15.2-6.3,30.8-11.7,46.5-17.5c6.1,9,11.8,17.8,17.7,26.5
		c6.4,9.4,15.9,10.3,23.9,2.3c3.1-3.1,5.6-6.5,8.5-9.8c0.6,0.5,1.1,0.8,1.7,1.3c0,1.6,0,3.2,0,4.8c0,20.6,0,41,0,61.6
		c0,7,2.3,10.3,6.9,10.3c4.6-0.1,6.9-3.4,6.9-10.4c0-20.6,0-41,0-61.6c0-1.6,0.1-3.2,0.2-6.2c4.2,4.5,7.4,8,11,11.3
		c6.6,6.3,16,5.4,21.5-1.9c1.7-2.3,3.2-4.8,4.8-7.2c4.6-7,9.3-13.8,13.8-20.8c15,5.5,29.6,10.6,44.1,16.1c9.8,3.8,15,11.5,15.1,22.2
		c0.1,9.8,0,19.8,0,29.6c0,7.2-0.1,14.3,0,21.5c0.1,4.3,2.9,7.2,6.6,7.3c3.7,0.1,6.5-2.7,7-7c0.1-1.3,0-2.4,0-3.7
		c0-11.9-0.1-23.8,0-35.5c0.2-13.6,0.6-27.2-10.1-37.9c7.8-3.3,7.8-3.3,13.1,2.2c3.1,3.1,6.2,6.4,9.4,9.3c2.3,2.1,3,4.2,3,7.2
		c-0.1,19.2-0.1,38.3,0,57.5c0,5,2.7,8.1,6.7,8.1s6.6-3.1,7-8c0-1,0-2.2,0-3.2c0-18.3,0-36.4,0.1-54.7c0-1.9,0.7-4.2,1.8-5.6
		c4.1-4.7,8.6-9,13.3-13.3c1-1,3.2-1.6,4.6-1.3c8.8,2.3,17.5,4.9,26.3,7.5c9.7,2.9,13.4,7.8,13.4,17.9c0,17,0,34,0,51.1
		c0,3.9,0.3,7.4,4.6,9C473.7,417.5,476.1,414.7,478.5,411.9z M449.3,387.7c0-6.6,0-13.4,0-20c0-5.6-2.6-8.8-7-8.7
		c-4.2,0.1-6.6,3.1-6.6,8.6c0,13.4,0,26.7,0,40c0,5.6,2.6,8.9,7,8.8c4.1-0.1,6.6-3.3,6.7-8.7C449.4,401,449.3,394.4,449.3,387.7z
		 M54.3,392.3c0-5.5,0.1-11,0-16.3c-0.1-5-2.7-7.9-6.9-7.9c-4,0-6.7,2.9-6.7,7.5c-0.1,11.1-0.1,22.2,0,33.2c0,4.6,3.1,7.5,6.9,7.5
		c3.9,0,6.6-3.1,6.7-7.7C54.4,403.2,54.3,397.7,54.3,392.3z M332.5,395c0-4.2,0-8.6,0-12.8c0-0.1,0-0.3,0-0.5
		c-0.2-5.3-3-8.3-7.2-8.1c-4,0.2-6.4,3.1-6.4,8.3c0,8.7,0,17.4,0,26.1c0,5.4,2.7,8.6,6.9,8.5c4.1-0.1,6.7-3.3,6.9-8.6
		C332.5,403.4,332.5,399.2,332.5,395z M171.3,395.1L171.3,395.1c0-4.7,0.1-9.5,0-14.2c-0.1-4.5-2.6-7.2-6.5-7.3
		c-3.8-0.1-6.9,2.5-7,6.9c-0.2,9.7-0.2,19.4,0,29.1c0.1,4.2,3.5,7.2,7.2,6.7c4-0.6,6.2-3,6.3-7.1
		C171.4,404.5,171.3,399.8,171.3,395.1z"/>
	<path class="st1" d="M478.5,411.9c-2.4,2.9-4.8,5.6-9.1,3.9c-4.2-1.6-4.6-5.1-4.6-9c0-17,0-34,0-51.1c0-10.2-3.7-15.1-13.4-17.9
		c-8.7-2.5-17.5-5.1-26.3-7.5c-1.4-0.3-3.5,0.2-4.6,1.3c-4.6,4.2-9,8.6-13.3,13.3c-1.3,1.4-1.8,3.8-1.8,5.6
		c-0.1,18.3-0.1,36.4-0.1,54.7c0,1,0,2.2,0,3.2c-0.2,5-2.9,8-7,8c-4,0-6.7-3.1-6.7-8.1c0-19.2-0.1-38.3,0-57.5c0-3-0.7-5.1-3-7.2
		c-3.3-3-6.3-6.2-9.4-9.3c-5.4-5.4-5.4-5.4-13.1-2.2c10.6,10.7,10.3,24.3,10.1,37.9c-0.1,11.9,0,23.8,0,35.5c0,1.3,0.1,2.4,0,3.7
		c-0.3,4.2-3.2,7.1-7,7s-6.5-3-6.6-7.3c-0.1-7.2,0-14.3,0-21.5c0-9.8,0-19.8,0-29.6c-0.1-10.7-5.3-18.5-15.1-22.2
		c-14.5-5.5-29-10.6-44.1-16.1c-4.6,7-9.3,13.8-13.8,20.8c-1.6,2.4-3.1,4.9-4.8,7.2c-5.5,7.3-14.9,8.1-21.5,1.9
		c-3.5-3.3-6.7-6.9-11-11.3c-0.1,3-0.2,4.6-0.2,6.2c0,20.6,0,41,0,61.6c0,7-2.3,10.4-6.9,10.4c-4.6,0.1-6.9-3.3-6.9-10.3
		c0-20.6,0-41,0-61.6c0-1.6,0-3.2,0-4.8c-0.6-0.5-1.1-0.8-1.7-1.3c-2.9,3.3-5.4,6.7-8.5,9.8c-8,8-17.5,7.1-23.9-2.3
		c-5.8-8.7-11.7-17.4-17.7-26.5c-15.7,5.8-31.3,11.2-46.5,17.5c-9,3.8-12.6,11.9-12.6,21.5c0,15.8,0,31.6,0,47.4
		c0,1.5,0,3.1-0.2,4.6c-0.5,3.5-2.7,5.5-6.2,5.7c-3.3,0.2-5.9-1.5-6.9-4.8c-0.5-1.6-0.6-3.3-0.6-4.9c0-15.8-0.5-31.6,0.1-47.4
		c0.2-7.1,2.4-14.2,3.8-21.7c-5.4-3.8-5.4-3.8-10.9,1.4c-12.1,11.7-25.3,14.1-37.5,6.5c-3.9-2.4-7.2-5.6-10.4-8.8
		c-1.9-1.8-3.3-2.4-5.8-1c-5.9,3.3-12.1,6.2-18.3,9.3c-6.7,3.3-9.8,8.6-9.8,16.1c0.1,15.1,0,30,0,45.1c0,1.3,0.1,2.4-0.1,3.7
		c-0.5,3.9-3.3,6.7-6.9,6.7s-6.5-2.7-6.7-6.7c-0.2-4.2-0.1-8.5-0.1-12.8c0-12.1,0-24.3,0-36.4c0-12.6,5.6-21.8,16.8-27.5
		c5.5-2.9,11.1-5.6,16.8-8.5c-5.1-3.3-9.9-6.2-14.6-9.5c-2.3-1.6-4.2-3.9-6.4-5.8c-4.9-4.7-5.5-9.5-3.4-16.3
		c2.9-9.5,3.3-19.7,4.3-29.6c1.1-11,0.8-22.3,3-33c4.9-24.6,25.5-43.6,48.6-46.3c28.6-3.2,54.4,13.5,62.3,41.5
		c2.6,9.5,2.9,19.8,3.9,29.7c1,10.3,1.7,20.6,2.9,30.8c0.3,3.1,1.4,6.3,2.5,9.1c1.8,4.5,1,8.1-1.9,11.8c-6.2,7.7-14.1,12.9-23,17.1
		c3.3,3,5.9,3.1,10.2,1.4c13.4-5.7,27.2-10.4,40.9-15.4c3-1.1,5-2.5,6.9-5.7c2.6-4.7,7.2-8.1,10.6-12.3c1.4-1.7,1.8-4.2,2.6-6.4
		c0.1-0.5,0-0.9,0-1.4c1.5-11.4-1.7-20.2-10.2-29c-13.7-14.4-19.1-33-19-52.8c0-9.8-2.3-19-4.5-28.5c-4.9-21.3-6.2-43,3.9-63.3
		c11.2-22.7,30.2-35.6,55.3-36.4c34.7-1,69.6-0.3,104.4-0.3c5.3,0,8.1,2.6,8,7.9c-0.1,26.6-0.1,53.2-0.7,79.8
		c-0.1,6.1-1.8,12.3-3.9,18.2c-2.1,5.6-2.9,11.1-2.7,16.9c0.5,15.7-1,31.2-9.1,44.9c-4.9,8.2-11.7,15.4-17.5,23.2
		c-1.3,1.7-1.8,3.9-2.6,5.8c-0.1,0.3,0,0.9,0,1.4c-1.8,12.1,1.1,22.4,11.4,29.8c0.3,0.2,0.8,0.6,0.9,1c1.7,6.9,7.9,7.4,13.1,9.4
		c8,3,16,5.7,23.9,8.8c3.4,1.4,6.6,1.7,10.1,0.3c1.9-0.8,4.1-1.3,6.1-1.8c9-2.6,9.7-3.7,8.3-12.8c-0.2-1.1-1.1-2.4-2.1-3.2
		c-13.5-11.3-20.1-25.7-19.8-43.2c0.1-6.1-1-11.4-3.7-17c-11.9-25.3,6.7-57.4,34.7-58.7c23.2-1.1,46.5-0.7,69.7-0.7
		c4.8,0,7.8,2.4,7.8,6.6c0,14.3-0.2,28.6-0.8,42.8c-0.1,3.3-1.3,7-3,9.9c-3.1,5.6-3.7,11.3-3.5,17.5c0.5,17.5-5.7,32.1-19.7,43
		c-4.1,3.2-1.9,7.7-1.8,11.4c0,1.3,3.1,2.9,5,3.4c7.5,2.4,15.2,4.5,22.7,6.6c11.7,3.3,19.4,10.4,22.3,22.3c0.1,0.3,0.5,0.7,0.7,1.1
		C478.5,369.4,478.5,390.6,478.5,411.9z M318.2,87.5c-0.3-0.1-0.8-0.3-1.1-0.3c-32.3,0-64.8-0.5-97.1,0.2
		c-22.6,0.6-42.2,17.3-46.8,39.3c-3.3,15.8-3.5,32,1.9,47.3c3,8.5,3.7,16.7,3.7,25.4c-0.1,11.5,1.9,22.6,6.9,33.1
		c12.1,25.9,37.7,40.4,67.2,37.9c25.9-2.2,49.9-22.5,56.1-48.9c2.4-10.5,1.7-21.7,2.6-32.6c0.2-3.1,0.9-6.3,1.7-9.3
		c1.7-7.3,4.8-14.6,5-22.1c0.7-23.1,0.3-46.2,0.5-69.2C318.7,88.2,318.4,87.9,318.2,87.5z M442.9,197.1c-1.1-0.1-1.8-0.2-2.6-0.2
		c-18.4,0-36.8,0-55.2,0c-2.7,0-5.5,0.3-8.1,1c-18.9,4.6-28.2,25.8-19.2,41.5c3.1,5.4,3.9,11,4,17c0,5.8,0.6,11.9,2.1,17.5
		c3.9,14.5,16.9,24.7,32.7,26.3c13,1.4,27.5-6.6,34.4-19c3.9-6.9,5-14.3,4.8-21.9c-0.2-7.2,0.2-14.1,4-20.7c2.1-3.5,3-8.1,3.1-12.2
		C443.1,216.8,442.9,207.3,442.9,197.1z M128.6,255c1.3-17.6-3.1-31.9-12.8-43.5c-14.1-16.8-41.5-19.1-58.3-5
		c-15.8,13.1-18.7,30.6-18.3,49.5c6.5,2.2,7.1,2.9,7.9,9.7c0.1,0.8,0.2,1.5,0.3,2.3c2.3,16.5,15.2,30,30.5,31.9
		c18.6,2.2,33.8-6.5,40.6-23.1c2.1-5,1.9-9.4-1.5-13.9c-8.8-12-21.1-17.6-35.2-20.7c-6.5-1.4-11.9-0.8-15.8,5.1
		c-0.9,1.4-2.3,2.5-3.4,3.7c-3.3,3.2-7.3,3.5-10.2,0.9c-3-2.7-2.9-7,0.5-10.5c3.3-3.5,6.9-7,10.1-10.5c2.5-2.7,5.4-3.5,8.9-3.4
		C94.6,228.6,114.1,235.9,128.6,255z M207.9,275.5c0,4.1-0.1,7.2,0.1,10.4c0.1,1.1,0.8,2.7,1.7,3.4c11.7,8.1,23.5,16.1,35.3,24.2
		c11.9-8.1,23.5-16,35.2-24.1c0.9-0.7,1.8-2.2,1.9-3.3c0.2-3.2,0.1-6.5,0.1-10.4C257.3,287.5,233,287.7,207.9,275.5z M256.6,322.2
		c5.7,5.8,11.3,11.4,17.1,17.4c5.4-8,10.9-16.2,16.5-24.6c5.1-7.7,5-7.7-1.8-13.6c-0.1-0.1-0.2-0.1-0.9-0.2
		C277.2,308.1,266.6,315.3,256.6,322.2z M216.4,339.6c5.8-5.8,11.4-11.4,17.3-17.3c-10.2-7-20.8-14.2-31.6-21.6
		c-1.8,2.1-3.7,3.7-5.1,5.6c-0.6,0.8-0.9,2.6-0.5,3.4C203.1,319.8,209.9,329.7,216.4,339.6z M69.1,313.1c-0.2,7.1-3.3,15.5,6.7,20.5
		c5.7,2.7,10.7,2.7,16.5,0c9.9-4.9,7.3-13.3,6.4-20.5C88.9,313.1,79.2,313.1,69.1,313.1z M398.5,334.5c4.5-4.6,8-8.8,12-12.3
		c3.3-3,4-6.1,3-9.3c-10.1,0-19.9,0-30.3,0c0.3,1.9-0.1,5,1.4,6.9C388.6,324.8,393.4,329.3,398.5,334.5z M37.5,283.3
		c-1.3,5.1-2.5,9.5-3.4,13.9c-0.2,1,0.2,2.7,0.9,3.5c5.6,5.7,12.2,9.6,20.9,12.3c-0.8-3.7-0.5-7.5-2.2-8.9
		C47.2,298.4,41.7,291.9,37.5,283.3z M113.2,312.8c7.5-2.7,14.2-6.2,19.5-11.8c0.8-0.9,1.7-2.4,1.5-3.4c-0.9-4.6-2.3-9-3.3-12.7
		c-4.5,5.4-8.7,11.5-14.1,16.5C113.3,304.7,112.1,307.8,113.2,312.8z"/>
	<path class="st2" d="M449.3,387.7c0,6.6,0,13.4,0,20c0,5.4-2.6,8.6-6.7,8.7c-4.2,0.1-7-3.2-7-8.8c0-13.4,0-26.7,0-40
		c0-5.4,2.4-8.5,6.6-8.6c4.3-0.1,7,3.1,7,8.7C449.4,374.4,449.3,381,449.3,387.7z"/>
	<path class="st2" d="M54.3,392.3c0,5.5,0.1,11,0,16.3c-0.1,4.6-2.9,7.7-6.7,7.7s-6.9-3-6.9-7.5c-0.1-11.1-0.1-22.2,0-33.2
		c0-4.7,2.9-7.5,6.7-7.5c4.1,0,6.7,3,6.9,7.9C54.4,381.4,54.3,386.9,54.3,392.3z"/>
	<path class="st2" d="M332.5,395c0,4.2,0.1,8.6,0,12.8c-0.1,5.4-2.7,8.6-6.9,8.6c-4.1,0.1-6.9-3.2-6.9-8.5c0-8.7,0-17.4,0-26.1
		c0-5.1,2.4-8.1,6.4-8.3c4.2-0.2,7,2.9,7.2,8.1c0,0.1,0,0.3,0,0.5C332.5,386.4,332.5,390.8,332.5,395z"/>
	<path class="st2" d="M171.3,395.1c0,4.7,0.1,9.4,0,14.2c-0.1,4.1-2.3,6.5-6.3,7.1c-3.5,0.5-7-2.5-7.2-6.7c-0.2-9.7-0.2-19.4,0-29.1
		c0.1-4.3,3.2-7,7-6.9c3.8,0.1,6.3,2.9,6.5,7.3C171.4,385.6,171.3,390.4,171.3,395.1L171.3,395.1z"/>
	<path class="st0" d="M318.2,87.5c0.2,0.3,0.5,0.6,0.5,0.9c0,23.1,0.3,46.2-0.5,69.2c-0.2,7.4-3.4,14.6-5,22.1
		c-0.7,3.1-1.4,6.2-1.7,9.3c-0.9,10.9-0.2,22.1-2.6,32.6c-6.1,26.5-30.2,46.7-56.1,48.9c-29.5,2.5-55.1-12-67.2-37.9
		c-4.9-10.5-7-21.6-6.9-33.1c0.1-8.7-0.6-16.9-3.7-25.4c-5.5-15.3-5.4-31.5-1.9-47.3c4.7-22.1,24.2-38.7,46.8-39.3
		c32.3-0.8,64.8-0.2,97.1-0.2C317.4,87.2,317.9,87.4,318.2,87.5z M200.6,152.1c15.4-2.2,30.5-3.3,45.7-2.1
		c16.6,1.4,32.6,4.2,45.5,15.9c3.1,2.7,7,2.2,9.4-0.6c2.6-3,2.3-6.9-1.1-10.1c-9.1-8.7-20.2-13.4-32.2-16c-22.9-5-45.8-4.1-68.8-0.8
		c-6.7,0.9-11.4,6.2-12,13c-0.3,5-0.2,10.1-0.2,15c0.1,5.6,2.5,8.5,6.9,8.5s6.6-2.9,6.7-8.5C200.7,161.7,200.6,157,200.6,152.1z"/>
	<path class="st0" d="M442.9,197.1c0,10.1,0.3,19.7-0.1,29.3c-0.2,4.1-1.1,8.7-3.1,12.2c-3.8,6.6-4.2,13.5-4,20.7
		c0.2,7.7-0.9,15.1-4.8,21.9c-6.9,12.3-21.4,20.3-34.4,19c-15.8-1.7-28.8-11.8-32.7-26.3c-1.5-5.6-2.1-11.7-2.1-17.5
		c0-6.1-0.9-11.7-4-17c-9-15.7,0.3-36.9,19.2-41.5c2.6-0.7,5.4-0.9,8.1-1c18.4-0.1,36.8,0,55.2,0C440.9,196.9,441.7,197,442.9,197.1
		z M427.2,232.3c-1-1-2.6-3.7-4.9-4.7c-14.6-6.4-30.2-7.3-45.8-7.5c-4.1,0-6.6,3-6.5,6.7c0.1,3.9,2.3,6.3,6.2,6.5
		c14.5,1,29,1.8,42.8,7C423.2,241.9,427.3,238.2,427.2,232.3z"/>
	<path class="st0" d="M128.6,255C114,236,94.5,228.6,72,227.4c-3.7-0.2-6.5,0.7-8.9,3.4c-3.3,3.7-6.7,7-10.1,10.5
		c-3.3,3.5-3.4,7.8-0.5,10.5c2.9,2.6,6.9,2.3,10.2-0.9c1.3-1.1,2.6-2.3,3.4-3.7c3.9-6.1,9.3-6.6,15.8-5.1c14.1,3,26.4,8.7,35.2,20.7
		c3.4,4.6,3.5,8.9,1.5,13.9c-6.7,16.6-21.9,25.3-40.6,23.1c-15.2-1.8-28.2-15.4-30.5-31.9c-0.1-0.8-0.2-1.5-0.3-2.3
		c-0.8-6.9-1.3-7.4-7.9-9.7c-0.5-18.9,2.5-36.4,18.3-49.5c16.8-13.9,44.2-11.8,58.3,5C125.7,223.1,130,237.4,128.6,255z"/>
	<path class="st0" d="M207.9,275.5c25,12.2,49.2,12,74.2,0.2c0,3.9,0.1,7.2-0.1,10.4c-0.1,1.1-0.9,2.6-1.9,3.3
		c-11.5,8-23.3,16-35.2,24.1c-11.8-8.1-23.7-16.1-35.3-24.2c-0.9-0.7-1.6-2.2-1.7-3.4C207.8,282.8,207.9,279.6,207.9,275.5z"/>
	<path class="st0" d="M256.6,322.2c10.1-6.9,20.6-14.1,30.8-21.1c0.7,0.1,0.8,0.1,0.9,0.2c6.9,6.1,6.9,6.1,1.8,13.6
		c-5.5,8.2-11.1,16.6-16.5,24.6C267.9,333.6,262.3,328,256.6,322.2z"/>
	<path class="st0" d="M216.4,339.6c-6.5-9.8-13.3-19.8-19.9-29.9c-0.5-0.8-0.2-2.5,0.5-3.4c1.4-1.9,3.2-3.5,5.1-5.6
		c10.9,7.4,21.4,14.6,31.6,21.6C227.8,328.1,222.2,333.7,216.4,339.6z"/>
	<path class="st0" d="M69.1,313.1c10.1,0,19.8,0,29.6,0c0.9,7.2,3.5,15.4-6.4,20.5c-5.7,2.9-10.7,2.9-16.5,0
		C65.9,328.6,68.9,320.1,69.1,313.1z"/>
	<path class="st0" d="M398.5,334.5c-5.1-5.4-9.9-9.8-13.9-14.7c-1.4-1.7-1-4.9-1.4-6.9c10.4,0,20.2,0,30.3,0c1,3.1,0.5,6.3-3,9.3
		C406.4,325.7,403,330,398.5,334.5z"/>
	<path class="st0" d="M37.5,283.3c4.2,8.7,9.6,15.1,16.3,20.8c1.7,1.5,1.4,5.4,2.2,8.9c-8.7-2.9-15.4-6.6-20.9-12.3
		c-0.8-0.8-1.1-2.4-0.9-3.5C35,292.8,36.2,288.5,37.5,283.3z"/>
	<path class="st0" d="M113.2,312.8c-1.3-5.1,0.1-8.1,3.8-11.4c5.4-4.8,9.5-11,14.1-16.5c1,3.8,2.3,8.2,3.3,12.7
		c0.2,1-0.7,2.5-1.5,3.4C127.5,306.7,120.9,310.1,113.2,312.8z"/>
	<path class="st2" d="M200.6,152.1c0,5,0.1,9.7,0,14.4c-0.1,5.6-2.5,8.5-6.7,8.5c-4.3,0-6.7-2.9-6.9-8.5c-0.1-5-0.2-10.1,0.2-15
		c0.5-6.9,5.3-12,12-13c23-3.3,45.9-4.2,68.8,0.8c12,2.6,23.1,7.3,32.2,16c3.4,3.2,3.8,7.1,1.1,10.1c-2.4,2.7-6.4,3.2-9.4,0.6
		c-13-11.7-29-14.5-45.5-15.9C231.2,148.6,216.2,149.8,200.6,152.1z"/>
	<path class="st2" d="M427.2,234.7c0.1,4.3-4,7-8.3,5.8c-13.8-3.7-28.3-4.3-42.8-5c-3.9-0.1-6.1-1.9-6.2-4.7
		c-0.1-2.7,2.4-4.9,6.5-4.9c15.7,0.1,31.2,0.8,45.8,5.5C424.6,231.9,426.2,233.8,427.2,234.7z"/>
</g>
<g class="st3">
	<path class="st4" d="M397.8,272.3c0,41.8,0,83.6,0,125.5c-102.2,0-204.3,0-306.6,0c0-102.2,0-204.4,0-306.6c38.4,0,76.9,0,115.3,0
		c-2.9,0.5-5.9,0.8-8.8,1.5c-19.1,4.8-32,16.8-37.5,35.6c-5.6,19.1-0.9,36.2,12.8,50.7c4.1,4.4,8.4,8.5,12.6,12.7
		c18.1,18.2,36.2,36.5,54.3,54.7c3.7,3.7,6.1,3.7,9.8,0c2-2,3.9-4,5.9-5.9c20.9-21.2,42.2-42,62.6-63.6
		c24.7-26.1,13.5-70.7-20.4-82.7c-3.8-1.3-7.8-2-11.8-3c37.3,0,74.5,0,111.8,0c0,53.8,0,107.6,0,161.4c-0.2-1.2-0.5-2.3-0.6-3.5
		c-1.2-12.6-4.1-24.7-8.9-36.4c-1.3-3.3-3.5-4.7-6.1-3.9c-1.5,0.5-2.8,1.4-4.1,2.3c-15.6,11-32.8,18.2-51.5,21.9
		c-13.1,2.6-26.4,5-39.2,9c-20.2,6.4-36.9,18.2-48.1,36.7c-0.2,0.3-0.5,0.5-0.9,0.8c-5.2-9.7-11.6-18.3-19.7-25.5
		c-12.5-11.1-27.4-17.1-43.5-20.5c-8.8-1.8-17.7-3.1-26.4-5.1c-14.4-3.3-27.6-9.4-39.7-18c-4.1-2.9-7.3-2-9.2,2.6
		c-0.8,1.8-1.5,3.7-2.1,5.6c-9.6,29.1-7.9,57.7,3.9,85.7c11,25.9,28.7,45.8,54.8,57.2c23.7,10.4,48.4,11.1,73.4,5.2
		c3.4-0.8,4.6-2.5,4.6-6.3c0.1-17.2,0.9-34.4,4.2-51.4c4.6-23.6,17.4-40.9,38.7-51.9c12.7-6.6,26.4-10,40.4-12.2
		c17.4-2.8,34.3-7.2,49.9-15.6c4.4-2.4,8.6-5,12.9-7.5c0.2,0.2,0.3,0.3,0.4,0.5c0.3,0.7,0.5,1.5,0.8,2.3c7.4,23.7,7.7,47.6,1.7,71.6
		c-7.7,30.5-23.9,55.4-50.7,72.6c-18.1,11.7-38.2,17.1-59.5,18.2c-5.9,0.3-11.8,0-18.4,0c2.8-5,5.1-9.4,7.7-13.8
		c17.4-29.1,40.1-53.2,68-72.3c3.4-2.3,4.2-5.2,2.4-7.8c-1.8-2.7-4.8-3-8.1-0.7c-21.6,14.9-40.5,32.5-56.5,53.3
		c-10,13.1-18.8,26.9-25.1,42.2c-0.7,1.7-0.8,3.9-0.2,5.6c0.8,2.5,3.4,2.7,5.8,2.9c11.6,1,23.1,0.9,34.6-0.6
		c17-2.2,33.5-6.2,48.5-14.8c36-20.6,55.3-52.7,63.3-92.5C396.5,283.4,397,277.8,397.8,272.3z"/>
	<path class="st5" d="M397.8,272.3c-0.8,5.5-1.3,11-2.4,16.5c-8,39.8-27.3,71.9-63.3,92.5c-15,8.6-31.5,12.6-48.5,14.8
		c-11.5,1.5-23,1.6-34.6,0.6c-2.3-0.2-4.9-0.4-5.8-2.9c-0.6-1.7-0.5-4,0.2-5.6c6.3-15.3,15-29.2,25.1-42.2
		c16-20.8,34.9-38.4,56.5-53.3c3.3-2.3,6.3-2,8.1,0.7c1.8,2.6,1,5.5-2.4,7.8c-28,19.1-50.7,43.2-68,72.3c-2.6,4.3-4.9,8.8-7.7,13.8
		c6.5,0,12.5,0.3,18.4,0c21.3-1.1,41.4-6.6,59.5-18.2c26.8-17.3,42.9-42.1,50.7-72.6c6.1-24,5.8-47.9-1.7-71.6
		c-0.2-0.8-0.5-1.5-0.8-2.3c-0.1-0.2-0.2-0.3-0.4-0.5c-4.3,2.5-8.5,5.1-12.9,7.5c-15.6,8.5-32.4,12.9-49.9,15.6
		c-14,2.2-27.7,5.7-40.4,12.2c-21.3,11-34.1,28.3-38.7,51.9c-3.3,17-4.1,34.2-4.2,51.4c0,3.8-1.2,5.5-4.6,6.3
		c-25,5.9-49.7,5.2-73.4-5.2c-26.1-11.4-43.9-31.3-54.8-57.2c-11.8-28-13.6-56.6-3.9-85.7c0.6-1.9,1.4-3.7,2.1-5.6
		c1.9-4.6,5-5.5,9.2-2.6c12.1,8.5,25.3,14.7,39.7,18c8.7,2,17.6,3.2,26.4,5.1c16.1,3.4,31,9.4,43.5,20.5
		c8.1,7.2,14.5,15.8,19.7,25.5c0.4-0.3,0.7-0.5,0.9-0.8c11.3-18.5,27.9-30.3,48.1-36.7c12.8-4,26-6.4,39.2-9
		c18.7-3.8,35.9-10.9,51.5-21.9c1.3-0.9,2.6-1.9,4.1-2.3c2.6-0.8,4.8,0.6,6.1,3.9c4.8,11.7,7.6,23.8,8.9,36.4
		c0.1,1.2,0.4,2.3,0.6,3.5C397.8,259.2,397.8,265.7,397.8,272.3z M107.6,221.3c-0.4,1.3-0.8,2.2-1.1,3.1
		c-6.3,20.6-6.2,41.2-0.4,61.8c11.8,41.9,46.3,75.1,96.7,73.8c5.4-0.1,10.8-0.9,16.8-1.3c-0.9-1.6-1.3-2.7-2-3.6
		c-6.7-8.8-13-17.9-20.2-26.2c-13.5-15.4-29.4-28.3-46.3-39.9c-3.4-2.3-4.1-5.2-2.3-7.8c1.8-2.6,4.8-2.8,8.1-0.5
		c3.8,2.6,7.5,5.2,11.2,8c20.8,15.7,39.6,33.3,54.3,55c0.5,0.7,1,1.4,1.7,2.3c0.1-0.6,0.3-0.9,0.3-1.2c0.2-17.4,2.9-34.5,8.1-51.1
		c0.3-1,0.2-2.4-0.2-3.4c-5.1-12.1-12.5-22.6-22.8-30.9c-10.9-8.9-23.8-13.5-37.3-16.4c-10.2-2.1-20.6-3.7-30.7-6.2
		C129.4,233.8,118.3,228.4,107.6,221.3z"/>
	<path class="st6" d="M286,91.2c3.9,1,8,1.6,11.8,3c33.9,11.9,45.2,56.6,20.4,82.7c-20.5,21.6-41.7,42.5-62.6,63.6
		c-2,2-3.9,4-5.9,5.9c-3.7,3.7-6.1,3.8-9.8,0c-18.1-18.2-36.2-36.5-54.3-54.7c-4.2-4.2-8.5-8.4-12.6-12.7
		c-13.6-14.5-18.3-31.6-12.8-50.7c5.5-18.8,18.4-30.8,37.5-35.6c2.9-0.7,5.8-1,8.8-1.5c1.6,0,3.2,0,4.8,0c0.8,0.2,1.5,0.4,2.3,0.5
		c9.6,0.9,18.3,4.3,26,10.2c1.8,1.4,3.5,2.9,5.3,4.4c5.2-5.1,11-9.3,17.9-11.7c4.1-1.4,8.3-2.3,12.5-3.5
		C278.8,91.2,282.4,91.2,286,91.2z M245.2,236.4c0,0,0.2-0.1,0.4-0.3c21.6-21.9,43.5-43.6,64.8-65.7c13.6-14.1,14.4-36.1,2.8-51.9
		c-11.6-15.7-32.9-21.2-50.4-12.3c-5,2.5-9.3,6.7-13.7,10.3c-3.2,2.6-5.6,2.8-8.6,0c-1.4-1.3-2.7-2.7-4-4
		c-13.9-13.2-35.2-14.7-50.9-3.6c-20.7,14.7-23.4,44.2-5.6,62.6c13.5,13.9,27.2,27.7,40.9,41.5C228.9,220.7,237,228.4,245.2,236.4z"
		/>
	<path class="st4" d="M107.6,221.3c10.7,7,21.8,12.5,33.9,15.5c10.1,2.5,20.5,4.1,30.7,6.2c13.6,2.8,26.4,7.5,37.3,16.4
		c10.2,8.3,17.7,18.8,22.8,30.9c0.4,1,0.6,2.4,0.2,3.4c-5.1,16.7-7.9,33.7-8.1,51.1c0,0.3-0.1,0.5-0.3,1.2c-0.7-0.9-1.2-1.6-1.7-2.3
		c-14.7-21.7-33.5-39.4-54.3-55c-3.7-2.8-7.4-5.4-11.2-8c-3.3-2.3-6.3-2.1-8.1,0.5c-1.9,2.6-1.1,5.5,2.3,7.8
		c16.9,11.6,32.7,24.5,46.3,39.9c7.3,8.3,13.5,17.4,20.2,26.2c0.7,0.9,1.1,2,2,3.6c-6,0.5-11.4,1.2-16.8,1.3
		c-50.5,1.2-85-31.9-96.7-73.8c-5.8-20.6-5.9-41.2,0.4-61.8C106.8,223.5,107.1,222.6,107.6,221.3z"/>
	<path class="st4" d="M245.2,236.5c-8.2-8-16.3-15.6-24.2-23.5c-13.7-13.8-27.4-27.6-40.9-41.5c-17.8-18.3-15.1-47.9,5.6-62.6
		c15.6-11.1,36.9-9.6,50.9,3.6c1.4,1.3,2.7,2.7,4,4c3,2.9,5.4,2.7,8.6,0c4.4-3.7,8.7-7.8,13.7-10.3c17.6-8.9,38.9-3.4,50.4,12.3
		c11.6,15.8,10.8,37.9-2.8,52c-21.4,22.2-43.2,43.9-64.8,65.8C245.4,236.4,245.2,236.5,245.2,236.5z M178.4,142.6
		c0.2,6.5,1.9,12.5,5.6,17.8c1.9,2.8,4.8,3.5,7.2,2c2.6-1.6,3.1-4.6,1.3-7.6c-5.8-9.6-5.2-18,1.9-26.7c2.3-2.8,2.2-5.6-0.1-7.7
		c-2.3-2-5.2-1.6-7.6,1.1C181.2,127.5,178.6,134.6,178.4,142.6z M210.2,111.5c-0.9,0.2-2.3,0.2-3.4,0.8c-2.1,1-3.4,2.9-2.6,5.1
		c0.6,1.6,2,3.5,3.6,4.2c1.9,0.9,4.3,0.8,6.4,0.8c2.8,0.1,4.9-2,5.2-4.7c0.2-2.6-1.5-4.9-4.1-5.4
		C213.7,111.8,212.1,111.7,210.2,111.5z"/>
	<path class="st6" d="M178.4,142.6c0.2-8,2.8-15.1,8.3-21.1c2.4-2.7,5.3-3,7.6-1.1c2.4,2.1,2.4,4.9,0.1,7.7
		c-7.1,8.7-7.7,17-1.9,26.7c1.8,3,1.3,6-1.3,7.6c-2.4,1.5-5.3,0.8-7.2-2C180.4,155,178.6,149.1,178.4,142.6z"/>
	<path class="st6" d="M210.2,111.5c1.9,0.2,3.5,0.4,5.1,0.7c2.6,0.5,4.3,2.9,4.1,5.4c-0.2,2.7-2.4,4.8-5.2,4.7
		c-2.2-0.1-4.5,0-6.4-0.8c-1.5-0.7-3-2.5-3.6-4.2c-0.7-2.1,0.5-4.1,2.6-5.1C207.9,111.7,209.3,111.7,210.2,111.5z"/>
</g>
</svg>
